<?xml version="1.0" encoding="utf-8"?>
<!-- Generator: Adobe Illustrator 26.0.1, SVG Export Plug-In . SVG Version: 6.00 Build 0)  -->
<svg version="1.1" id="Layer_1" xmlns="http://www.w3.org/2000/svg" xmlns:xlink="http://www.w3.org/1999/xlink" x="0px" y="0px"
	 viewBox="0 0 300 300" style="enable-background:new 0 0 300 300;" xml:space="preserve">
<style type="text/css">
	.st0{fill:#4E1E46;}
	.st1{fill:#FFFFFF;}
	.st2{fill:#FF0000;}
	.st3{fill:#EFAA45;}
	.st4{fill:#CF7D34;}
	.st5{fill:#FCFCD8;}
	.st6{fill:#C7D2EE;}
	.st7{fill:#EE7483;}
	.st8{fill:#8E3A20;}
	.st9{fill:#C14A2F;}
	.st10{fill:#6B2C14;}
	.st11{fill:#C08000;}
	.st12{fill:#B05400;}
	.st13{fill:#924200;}
	.st14{fill:#CBB700;}
	.st15{fill:#73471C;}
	.st16{fill:#C89600;}
	.st17{fill:#C66700;}
	.st18{fill:#C17800;}
	.st19{fill:#F4A300;}
	.st20{fill:#E46D00;}
	.st21{fill:#C65900;}
	.st22{fill:#FFE600;}
	.st23{fill:#FECE00;}
	.st24{fill:#FEA401;}
	.st25{fill:#FFE503;}
	.st26{fill:#FCBD00;}
	.st27{fill:#F59900;}
</style>
<g>
	<g>
		<circle class="st0" cx="144.3" cy="155.7" r="144.3"/>
		<circle class="st1" cx="144.3" cy="155.7" r="135.56"/>
		<circle class="st2" cx="144.3" cy="155.7" r="127.03"/>
	</g>
	<g>
		<g>
			<path class="st0" d="M144.3,280.61l-3.36-3.69c-0.09-0.1-9.23-10.05-17.54-14.16c-4.97-2.46-10.39-4.41-15.64-6.3
				c-4.24-1.53-8.61-3.11-12.86-4.98c-5.56-2.44-10.4-5.24-14.38-8.32c-1.82-1.41-3.49-2.9-5-4.46c0.09,1.06,0.31,2.08,0.65,3.02
				l5.18,14.31l-12.18-9.14c-9.68-7.27-20.7-16.25-29.02-27.79c-4.24-5.88-7.48-12.09-9.65-18.46c-0.54-1.59-1.01-3.19-1.41-4.78
				l-2.41,10.73l-5.72-11.13c-3.86-7.5-5.3-15.11-4.28-22.61c0.99-7.32,4.3-14.32,9.82-20.8c1.57-1.84,3.25-3.5,4.88-5.11l0.01-0.01
				c1.46-1.44,2.85-2.81,4.1-4.25c1.21-1.39,2.64-2.94,4.03-4.43c4.79-5.17,10.76-11.61,12.54-16.58c1.61-4.5,3.62-8.83,5.98-12.9
				c-2.12-1.6-3.05-3.55-3.45-5.05c-0.32-1.21-0.39-2.51-0.2-3.81c-3.4-2.33-4.38-5.11-4.59-7.09c-0.15-1.39,0.05-2.8,0.57-4.14
				c-1.84-3.14-5.33-7.87-9.79-13.28c-0.08,0.01-0.16,0.02-0.24,0.02c-0.36,0.03-0.72,0.04-1.08,0.04c-6.11,0-11.52-4.1-13.12-10.1
				c-0.93-3.5-0.44-7.16,1.38-10.3c1.82-3.14,4.75-5.38,8.26-6.32c3.5-0.93,7.16-0.44,10.3,1.38c0.37,0.22,0.73,0.45,1.08,0.69
				c1.51-1.8,3.54-3.1,5.85-3.72c0.2-0.05,0.39-0.1,0.59-0.14c-0.86-1.26-1.51-2.67-1.91-4.17c-0.93-3.5-0.44-7.16,1.38-10.3
				c1.82-3.14,4.75-5.38,8.26-6.32c3-0.8,6.22-0.54,9.05,0.74c1.48,0.67,2.85,1.61,4.01,2.76c5.46-0.43,10.6,3.11,12.03,8.51
				c0.49,1.84,0.52,3.75,0.08,5.59c2.23,3.86,4.32,5.79,5.65,6.35c2.4-4.08,3.17-12.09,2.08-22.01c-1.29-0.63-2.47-1.44-3.54-2.41
				c-2.08-1.91-3.56-4.36-4.29-7.09c-1.02-3.82-0.48-7.81,1.5-11.23c1.99-3.42,5.18-5.87,9-6.89c3.82-1.02,7.81-0.48,11.23,1.5
				c3.42,1.99,5.87,5.18,6.89,9c1.03,3.86,0.45,7.94-1.58,11.36c3.88,9.07,8.44,15.73,12.52,18.35c0.81-1.44,1.32-3.94,1.4-7
				c-1.62-1.48-2.79-3.41-3.36-5.54c-1.5-5.65,1.51-11.49,6.81-13.63c1.31-4.56,4.95-8.18,9.57-9.41c3.5-0.93,7.16-0.44,10.3,1.38
				c3.14,1.82,5.39,4.75,6.32,8.26c0.23,0.87,0.37,1.75,0.43,2.63l0.8,1.74c2.23-0.43,4.49-0.19,6.55,0.67
				c0.21-0.5,0.46-0.98,0.73-1.45c1.82-3.14,4.75-5.38,8.26-6.32c3.5-0.93,7.16-0.44,10.3,1.38c3.14,1.82,5.39,4.75,6.32,8.26
				c0.84,3.16,0.51,6.52-0.93,9.46c-1.24,2.54-3.24,4.62-5.7,5.96c-1.21,7.01-1.9,12.93-1.93,16.61c1.11,0.9,1.98,2.03,2.55,3.3
				c0.53,1.21,0.94,2.89,0.64,4.96c8.78-5.67,19.79-11.31,28.88-11.31h1.82l1.31,1.25c0.62,0.59,3.85,3.98,6.19,12.44
				c1.32,4.78,2.12,10.35,2.37,16.55c0.24,5.87-0.03,12.4-0.78,19.41c4.98,6.39,8.91,13.58,11.7,21.38
				c1.78,4.97,7.74,11.41,12.54,16.58c1.39,1.5,2.82,3.05,4.03,4.43c1.26,1.44,2.64,2.8,4.1,4.25c1.63,1.61,3.31,3.27,4.89,5.12
				c5.53,6.48,8.83,13.48,9.82,20.8c1.02,7.5-0.42,15.11-4.28,22.61l-5.72,11.13l-2.41-10.73c-0.4,1.6-0.87,3.19-1.41,4.78
				c-2.16,6.37-5.41,12.58-9.64,18.46c-8.31,11.54-19.34,20.52-29.02,27.79l-12.18,9.14l5.18-14.31c0.34-0.94,0.56-1.96,0.65-3.02
				c-1.51,1.56-3.18,3.06-5,4.46c-3.98,3.08-8.82,5.88-14.38,8.32c-4.25,1.87-8.63,3.45-12.86,4.97c-5.26,1.9-10.68,3.85-15.65,6.31
				c-8.2,4.05-17.17,13.76-17.55,14.17L144.3,280.61z M72.81,228.26l2.76,3.75c2.03,2.76,4.6,5.35,7.63,7.7
				c3.69,2.86,8.22,5.48,13.46,7.78c4.12,1.81,8.42,3.36,12.58,4.86c5.37,1.94,10.91,3.94,16.1,6.5
				c9.13,4.51,18.75,15.04,18.84,15.14l0.12,0.14l0.14-0.15c0.4-0.44,9.91-10.72,18.83-15.13c5.19-2.56,10.73-4.56,16.09-6.5
				c4.17-1.5,8.47-3.06,12.59-4.87c5.24-2.3,9.76-4.92,13.46-7.78c3.03-2.35,5.6-4.94,7.63-7.7l2.76-3.75l1.12,4.51
				c0.89,3.58,0.76,7.29-0.38,10.43l-0.19,0.53l0.46-0.34c9.42-7.07,20.13-15.79,28.1-26.85c3.98-5.53,7.03-11.35,9.05-17.31
				c1.37-4.03,2.25-8.09,2.61-12.06l0.64-7.05l3.44,6.19c1.32,2.38,2.26,4.77,2.79,7.11l0.1,0.46l0.21-0.42
				c3.44-6.69,4.73-13.43,3.84-20.02v0c-0.88-6.47-3.84-12.71-8.82-18.55c-1.45-1.71-3.07-3.3-4.63-4.84
				c-1.52-1.5-2.96-2.92-4.33-4.49c-1.17-1.34-2.58-2.86-3.94-4.33c-5.06-5.46-11.37-12.26-13.45-18.08
				c-2.73-7.63-6.62-14.65-11.57-20.84l-0.56-0.71l0.1-0.9c0.8-7.13,1.09-13.73,0.85-19.64c-0.24-5.86-0.98-11.1-2.21-15.56
				c-2.11-7.63-4.87-10.32-4.99-10.44l-0.05-0.05h-0.07c-9.48,0-21.88,7.27-30.61,13.37l-1.64,1.15L180.38,68
				c-0.13-0.15-0.26-0.3-0.4-0.44l-0.72-0.72l0.19-2.25l0.23-0.42c1.15-2.06,1.4-3.87,0.72-5.41c-0.36-0.83-1.01-1.54-1.87-2.07
				l-1-0.62l-0.04-1.18c-0.12-4.06,0.65-11.04,2.18-19.66l0.2-1.16l1.08-0.47c4.15-1.8,6.4-6.45,5.23-10.82
				c-0.63-2.38-2.15-4.36-4.29-5.6c-2.13-1.24-4.62-1.57-6.99-0.94c-2.38,0.63-4.36,2.15-5.6,4.29c-0.53,0.91-0.9,1.89-1.09,2.91
				l-0.66,3.48l-2.81-2.15c-1.78-1.36-4.03-1.81-6.18-1.24c-1.21,0.32-2.3,0.95-3.18,1.81l-0.79,0.79l-0.53,1.01
				c-0.82,1.58-1.03,3.4-0.57,5.13c0.36,1.35,1.11,2.57,2.17,3.51l0.93,0.82l-0.23,1.22c-0.25,1.32-0.58,2.55-0.98,3.66
				c-0.19,0.52-0.39,1.01-0.61,1.47l-2.15,4.62l-1.86-4.74c-1.13-2.88-1.8-6.6-1.98-10.93l-4.3,4.26l4.26-7.66
				c0.01-0.45,0.02-0.91,0.03-1.37l0.03-1.01l0.79-0.63c0.33-0.26,0.65-0.56,0.95-0.86l0.81-0.85l0.57-1.03
				c1.17-2.1,1.47-4.54,0.86-6.85c-0.63-2.38-2.15-4.36-4.29-5.6c-2.13-1.24-4.62-1.57-6.99-0.94c-3.43,0.91-6.06,3.76-6.7,7.27
				l-0.25,1.35l-1.32,0.36c-3.77,1.03-6.02,4.94-5.01,8.72c0.41,1.55,1.35,2.93,2.64,3.89l0.88,0.65l0,1.1
				c0.01,3.68-0.49,8.65-2.88,11.47c-0.37,0.43-0.75,0.78-1.17,1.08l-0.99,0.69l-1.11-0.48c-2.92-1.26-5.89-3.93-8.82-7.96
				c-2.8-3.85-5.42-8.73-7.81-14.51l-0.46-1.12l0.7-0.98c1.79-2.52,2.39-5.79,1.6-8.76c-0.72-2.69-2.44-4.94-4.85-6.34
				c-2.41-1.4-5.23-1.78-7.92-1.06c-2.69,0.72-4.94,2.44-6.34,4.86c-1.4,2.42-1.78,5.23-1.06,7.92c0.51,1.92,1.56,3.65,3.02,4.99
				c0.99,0.91,2.13,1.61,3.38,2.09l1.23,0.47l0.16,1.31c0.76,6.18,0.87,11.68,0.31,16.36c-0.58,4.91-1.87,8.65-3.83,11.12
				l-0.57,0.71l-0.91,0.1c-0.86,0.09-1.72-0.02-2.61-0.34c-3.86-1.39-7.03-6.36-8.58-9.2l-0.45-0.83l0.3-0.9
				c0.43-1.31,0.47-2.72,0.12-4.06c-0.96-3.6-4.57-5.88-8.23-5.18l-1.26,0.24l-0.82-0.98c-0.89-1.06-2.03-1.93-3.29-2.49
				c-1.92-0.86-4.1-1.04-6.14-0.5c-2.38,0.63-4.37,2.15-5.6,4.29c-1.24,2.13-1.57,4.61-0.94,6.99c0.57,2.15,1.9,4.02,3.75,5.26
				c1.39,0.94,3.01,1.48,4.69,1.57l1.15,0.06l0.6,0.98c2.5,4.08,4.25,7.87,5.21,11.26l0.19,0.68l-0.25,0.67
				c-0.27,0.74-0.53,1.53-0.78,2.35l-0.92,3.07l-2.52-1.98c-0.19-0.15-0.38-0.3-0.56-0.46c-1.08-0.92-2.15-2.02-3.16-3.28
				l-0.68-0.85l0.26-1.06c0.29-1.17,0.29-2.4-0.02-3.57c-0.49-1.84-1.67-3.38-3.32-4.34c-1.65-0.96-3.57-1.21-5.41-0.73
				c-1.99,0.53-3.65,1.89-4.56,3.74l-1.4,2.83l-2.15-2.3c-0.62-0.66-1.33-1.22-2.12-1.68c-2.13-1.24-4.61-1.57-6.99-0.94
				c-2.38,0.63-4.36,2.15-5.6,4.29c-1.24,2.13-1.57,4.61-0.94,6.99c1.14,4.3,5.2,7.17,9.63,6.82c0.35-0.03,0.71-0.08,1.06-0.15
				l1.27-0.25l0.83,1c5.57,6.68,9.69,12.33,11.59,15.89l0.55,1.04l-0.56,1.03c-0.48,0.88-0.69,1.83-0.59,2.73
				c0.17,1.64,1.32,3.13,3.31,4.33l0.41,0.24l1.28,1.86l-0.27,0.98c-0.27,0.98-0.29,1.96-0.06,2.82c0.39,1.48,1.44,2.64,3.12,3.45
				l2.22,1.09l-1.27,2.05c-2.69,4.34-4.95,9.04-6.71,13.95c-2.08,5.81-8.38,12.61-13.45,18.08c-1.37,1.47-2.78,3-3.94,4.33
				c-1.37,1.57-2.81,2.99-4.33,4.49l-0.01,0.01c-1.56,1.54-3.17,3.13-4.62,4.83c-4.97,5.83-7.94,12.07-8.82,18.55
				c-0.89,6.6,0.4,13.33,3.84,20.02l0.21,0.42l0.1-0.46c0.52-2.34,1.46-4.73,2.79-7.11l3.45-6.19l0.64,7.06
				c0.36,3.96,1.24,8.02,2.61,12.06c2.02,5.96,5.07,11.79,9.05,17.31c7.97,11.06,18.68,19.78,28.1,26.85l0.46,0.34l-0.19-0.53
				c-1.14-3.15-1.27-6.85-0.38-10.43L72.81,228.26z M66.44,75.59l-4.78-0.35c-2.83-0.21-5.66-1.53-8.63-4.06
				c-1.21-1.02-2.4-2.23-3.56-3.58l-8.85-10.38l11.64,7.09c1.43,0.87,3.13,1.22,4.78,0.97l1.22-0.19l0.79,0.95
				c1.16,1.4,2.88,3.52,4.51,5.7L66.44,75.59z M160.69,50.15l0.49-4.09c0.34-2.83,0.81-5.69,1.14-7.59l0.19-1.1l1.01-0.49
				c1.75-0.84,3.09-2.4,3.69-4.26l1.09-3.38l2.53,2.49c0.22,0.21,0.44,0.42,0.68,0.6l1,0.81l-0.22,1.26
				c-0.34,1.97-0.81,3.8-1.41,5.43c-1.52,4.18-3.65,6.94-6.52,8.42L160.69,50.15z"/>
		</g>
		<g>
			<g>
				<g>
					<g id="XMLID_00000042711221178569812500000014957699163970713759_">
						<g>
							<path class="st3" d="M229.44,129.13c5.03,11.76,10.4,29.13,7.45,45.09c-6.71,36.29-38.59,58.44-87.47,60.76h-9.63
								c-48.88-2.33-80.76-24.47-87.47-60.76c-2.95-15.93,2.41-33.27,7.41-45c5.49-12.87,11.79-22.02,11.85-22.11l0.53-0.76
								l-0.13-0.91c-2.8-19.74-1.28-31.92,0.48-38.67c1.35-5.17,3.05-8,3.92-9.2c15.2,0.93,38.31,20.71,38.55,20.92l0.98,0.84
								l1.23-0.37c0.12-0.04,12.46-3.67,22.63-3.94h9.68c10.17,0.26,22.51,3.9,22.63,3.94l1.23,0.37l0.98-0.84
								c0.24-0.2,23.33-19.99,38.55-20.92c0.82,1.14,2.43,3.8,3.75,8.6c1.87,6.78,3.51,19.1,0.64,39.27l-0.13,0.91l0.53,0.76
								C217.7,107.21,223.95,116.28,229.44,129.13z M206.92,97.97c1.88-12.11,0-24.21,0-24.21c-7.26,0.81-21.79,10.49-21.79,10.49
								C197.42,90.57,206.92,97.97,206.92,97.97z M104.09,84.25c0,0-14.53-9.69-21.79-10.49c0,0-1.88,12.11,0,24.21
								C82.3,97.97,91.8,90.57,104.09,84.25z"/>
							<path class="st4" d="M203.6,80.72l3.32-6.96l-0.26-6.57c0,0-16.48,1.38-24.15,13.53l16.82,7.98L203.6,80.72z"/>
							<path class="st5" d="M210.73,103.26c0,0,29.56,39.68,17.52,80.92c2.23,0.34,4.13,0.78,5.64,1.2
								c-0.17,0.46-0.34,0.91-0.51,1.37c1.53-3.96,2.71-8.14,3.52-12.52c2.95-15.96-2.42-33.33-7.45-45.09
								c-5.49-12.85-11.75-21.93-11.81-22.02l-0.53-0.76l0.13-0.91c2.86-20.17,1.23-32.49-0.64-39.27c-1.33-4.8-2.93-7.46-3.75-8.6
								c-0.2,0.01-0.41,0.03-0.62,0.05C214.45,67.87,218.51,91.87,210.73,103.26z"/>
							<path class="st1" d="M193.56,189.74c0,0-11.01-19.93-41.96-21.01h-13.88c-30.94,1.08-41.96,21.01-41.96,21.01
								c-17.93-8.74-33.42-6.28-40.42-4.34c10.73,29.63,40.81,47.5,84.45,49.58h9.63c43.65-2.08,73.74-19.96,84.46-49.61
								C226.84,183.44,211.41,181.04,193.56,189.74z"/>
							<g>
								<path class="st4" d="M233.88,185.38C233.88,185.38,233.88,185.38,233.88,185.38c-0.01,0.04-0.03,0.07-0.04,0.11
									C233.86,185.45,233.87,185.42,233.88,185.38z"/>
								<path class="st4" d="M233.84,185.49c-0.15,0.42-0.31,0.84-0.47,1.26C233.54,186.33,233.69,185.91,233.84,185.49z"/>
								<path class="st4" d="M229.44,129.13c-5.49-12.85-11.75-21.93-11.81-22.02l-0.53-0.76l0.13-0.91
									c0.13-0.91,0.25-1.8,0.36-2.67c-3.18-2.7-6.75-4.87-10.37-7c-0.09,0.73-0.19,1.47-0.3,2.2c0,0-9.5-7.4-21.79-13.72
									c0,0,1.44-0.96,3.64-2.3c-0.1-0.11-0.2-0.21-0.29-0.32c-2.34-2.56-4.53-5.47-5.11-8.89c-0.07-0.39-0.11-0.79-0.13-1.19
									c-5.25,3.78-8.85,6.86-8.94,6.94l-0.98,0.84l-1.23-0.37c-0.12-0.04-12.46-3.67-22.63-3.94h-9.68
									c-10.17,0.26-22.51,3.9-22.63,3.94l-1.23,0.37l-0.98-0.84c-0.24-0.2-23.34-19.99-38.55-20.92c-0.87,1.2-2.56,4.03-3.92,9.2
									c-1.77,6.75-3.28,18.93-0.48,38.67l0.13,0.91l-0.53,0.76c-0.02,0.03-0.68,0.98-1.74,2.68c9.56,4.69,20.97,4.48,31.65,3.25
									c18.65-2.14,37-6.94,54.33-14.17c3.7,3.85,8.64,6.6,13.79,7.77c8.37,1.96,17.37,0.2,24.9-3.95
									c-8.53,1.28-17.5-4.58-19.95-12.8c1.03-0.56,2.06-1.13,3.08-1.71c17.67,13.4,33.62,29.24,40.94,50.18
									c5.04,14.42,6.12,30.46,2.45,45.19c5.46,0.12,9.89,1.02,12.85,1.83c1.28-3.55,2.29-7.27,3.01-11.16
									C239.84,158.26,234.47,140.89,229.44,129.13z M82.3,97.97c-1.88-12.11,0-24.21,0-24.21c7.26,0.81,21.79,10.49,21.79,10.49
									C91.8,90.57,82.3,97.97,82.3,97.97z"/>
							</g>
							<path class="st6" d="M222.3,205.35c0,0,0.01-0.01,0.01-0.01c0.31-0.36,0.61-0.72,0.9-1.08c0.01-0.01,0.02-0.03,0.04-0.04
								c0.3-0.36,0.59-0.73,0.88-1.1c0,0,0.01-0.01,0.01-0.01c0.88-1.13,1.72-2.29,2.53-3.48c0-0.01,0.01-0.01,0.01-0.02
								c0.26-0.39,0.52-0.78,0.78-1.18c0.01-0.01,0.01-0.02,0.02-0.03c1.03-1.61,1.99-3.26,2.88-4.96c0-0.01,0.01-0.02,0.01-0.03
								c0.22-0.42,0.44-0.85,0.65-1.27c0-0.01,0.01-0.01,0.01-0.02c0.85-1.73,1.63-3.5,2.34-5.32c0-0.01,0.01-0.02,0.01-0.03
								c0.17-0.45,0.35-0.91,0.51-1.37c-2.96-0.81-7.38-1.71-12.85-1.83c-1.66,6.66-4.29,13.05-7.96,18.9
								c-5.5,8.76-13.05,16.03-20.89,22.77c-0.79,0.68-1.59,1.36-2.39,2.03c0.39-0.14,0.77-0.29,1.15-0.44c0,0,0.01,0,0.01-0.01
								c0.5-0.19,1-0.39,1.49-0.59c0.02-0.01,0.04-0.02,0.06-0.02c0.47-0.19,0.94-0.39,1.41-0.59c0.05-0.02,0.1-0.04,0.15-0.07
								c0.46-0.2,0.91-0.4,1.36-0.6c0.05-0.02,0.11-0.05,0.16-0.07c0.45-0.21,0.91-0.41,1.36-0.62c0.03-0.01,0.06-0.03,0.09-0.04
								c0.94-0.44,1.86-0.9,2.76-1.36c0.02-0.01,0.05-0.03,0.07-0.04c0.44-0.23,0.87-0.46,1.31-0.69c0.04-0.02,0.09-0.05,0.13-0.07
								c0.43-0.23,0.85-0.46,1.27-0.7c0.04-0.02,0.08-0.04,0.12-0.07c0.43-0.24,0.86-0.49,1.28-0.74c0.01,0,0.02-0.01,0.02-0.01
								c0.87-0.52,1.73-1.04,2.58-1.58c0.02-0.02,0.05-0.03,0.07-0.05c0.4-0.26,0.81-0.52,1.2-0.79c0.03-0.02,0.07-0.05,0.1-0.07
								c0.4-0.27,0.79-0.54,1.18-0.81c0.02-0.02,0.04-0.03,0.07-0.05c1.22-0.85,2.4-1.73,3.54-2.64c0.02-0.02,0.04-0.03,0.06-0.05
								c0.37-0.29,0.74-0.59,1.1-0.89c0.02-0.02,0.05-0.04,0.07-0.06c0.37-0.3,0.73-0.61,1.09-0.92c0.01,0,0.01-0.01,0.02-0.01
								c0.74-0.64,1.47-1.3,2.18-1.97c0,0,0,0,0,0c0.35-0.33,0.69-0.66,1.03-0.99c0.02-0.02,0.03-0.03,0.05-0.05
								c0.33-0.33,0.66-0.66,0.99-1c0.01-0.01,0.03-0.03,0.04-0.04C220.4,207.51,221.37,206.45,222.3,205.35z"/>
							<path class="st4" d="M89.88,92.62c-4.68,3.09-7.59,5.36-7.59,5.36c-1.46-9.36-0.66-18.71-0.23-22.48l0,0l-3-7.74
								c0,0-6.78,22.5-2.84,39.72c0,0-27.21,36.58-14.76,76.65c4.65-0.68,10.67-0.95,17.55,0.2
								C72.59,161.95,72.98,131.91,89.88,92.62z"/>
							<path class="st6" d="M61.48,184.12c3.82,12.28,11.36,24.89,24.55,36.87c0.16,0.09,0.32,0.19,0.49,0.28
								c0.04,0.02,0.08,0.04,0.12,0.07c0.42,0.24,0.84,0.47,1.26,0.7c0.05,0.03,0.09,0.05,0.14,0.07c0.43,0.23,0.86,0.46,1.3,0.68
								c0.03,0.02,0.06,0.03,0.09,0.05c0.9,0.47,1.82,0.92,2.76,1.36c0.03,0.01,0.06,0.03,0.09,0.04c0.45,0.21,0.9,0.42,1.35,0.62
								c0.05,0.02,0.11,0.05,0.16,0.07c0.45,0.2,0.9,0.4,1.35,0.59c0.05,0.02,0.11,0.05,0.16,0.07c0.46,0.2,0.93,0.39,1.4,0.59
								c0.03,0.01,0.05,0.02,0.08,0.03c0.49,0.2,0.98,0.4,1.48,0.59c0,0,0.01,0,0.01,0c0.48,0.19,0.97,0.37,1.46,0.56
								c0.05,0.02,0.11,0.04,0.16,0.06c0.47,0.17,0.95,0.35,1.43,0.51c0.07,0.02,0.14,0.05,0.2,0.07c0.48,0.17,0.96,0.33,1.44,0.49
								c0.06,0.02,0.12,0.04,0.18,0.06c0.5,0.17,1,0.33,1.51,0.49c0.01,0,0.03,0.01,0.04,0.01c0.51,0.16,1.03,0.32,1.55,0.48
								c0.04,0.01,0.07,0.02,0.11,0.03c0.5,0.15,1.01,0.3,1.52,0.44c0.07,0.02,0.14,0.04,0.21,0.06c0.5,0.14,1,0.28,1.5,0.41
								c0.08,0.02,0.16,0.04,0.24,0.06c0.01,0,0.01,0,0.02,0c-10.51-8.5-24.24-23.36-30.82-46.24
								C72.15,183.17,66.13,183.44,61.48,184.12z"/>
							<path class="st0" d="M240.95,149.93c1.79,9.09,1.98,17.56,0.58,25.15c-3.26,17.64-12.46,32.77-26.62,43.77
								c-7.75,6.02-17,10.83-27.5,14.3c-11.17,3.68-23.89,5.88-37.82,6.54l-0.06,0l-9.91,0c-13.93-0.66-26.65-2.86-37.82-6.54
								c-10.5-3.46-19.75-8.27-27.5-14.3c-14.15-11-23.35-26.14-26.61-43.77c-1.4-7.6-1.21-16.06,0.58-25.15
								c1.42-7.2,3.83-14.82,7.17-22.65c4.81-11.26,10.09-19.57,11.75-22.07c-1.22-8.87-1.69-17.02-1.4-24.23
								c0.24-6.03,1.01-11.43,2.29-16.05c2.23-8.06,5.25-11.11,5.59-11.44l0.68-0.65h0.94c15.24,0,36.83,17.2,41.73,21.27
								c3.49-0.96,13.67-3.55,22.65-3.78l0.06,0l9.8,0c8.99,0.23,19.16,2.82,22.65,3.78c4.89-4.07,26.49-21.27,41.73-21.27h0.94
								l0.68,0.65c0.34,0.32,3.36,3.37,5.59,11.44c1.28,4.63,2.05,10.03,2.29,16.05c0.29,7.21-0.18,15.35-1.4,24.23
								c1.66,2.51,6.94,10.82,11.75,22.07C237.12,135.11,239.53,142.73,240.95,149.93z M236.89,174.22
								c2.95-15.96-2.42-33.33-7.45-45.09c-5.49-12.85-11.75-21.93-11.81-22.02l-0.53-0.76l0.13-0.91
								c2.86-20.17,1.23-32.49-0.64-39.27c-1.33-4.8-2.93-7.46-3.75-8.6c-15.22,0.93-38.31,20.71-38.55,20.92l-0.98,0.84l-1.23-0.37
								c-0.12-0.04-12.46-3.67-22.63-3.94h-9.68c-10.17,0.26-22.51,3.9-22.63,3.94l-1.23,0.37l-0.98-0.84
								c-0.24-0.2-23.34-19.99-38.55-20.92c-0.87,1.2-2.56,4.03-3.92,9.2c-1.77,6.75-3.28,18.93-0.48,38.67l0.13,0.91l-0.53,0.76
								c-0.06,0.09-6.36,9.24-11.85,22.11c-5.01,11.74-10.36,29.07-7.41,45c6.71,36.29,38.59,58.44,87.47,60.76h9.63
								C198.31,232.66,230.19,210.51,236.89,174.22z"/>
							<path class="st0" d="M206.92,73.76c0,0,1.88,12.11,0,24.21c0,0-9.5-7.4-21.79-13.72C185.13,84.25,199.66,74.56,206.92,73.76z
								"/>
							<path class="st0" d="M82.3,73.76c7.26,0.81,21.79,10.49,21.79,10.49C91.8,90.57,82.3,97.97,82.3,97.97
								C80.42,85.86,82.3,73.76,82.3,73.76z"/>
						</g>
					</g>
				</g>
				<g>
					<g id="XMLID_00000005969932087308096590000017059302555848795295_">
						<g>
							<path class="st7" d="M132.36,206.84c3.46-1.93,14.48-7,24.79-0.15c-0.24,0.35-0.5,0.7-0.8,1.04
								c-2.32,2.65-6.01,4.15-10.97,4.46C138.5,212.63,134.58,209.89,132.36,206.84z"/>
							<path class="st0" d="M197.05,126.62c1.56,0.33,2.56,1.87,2.23,3.43c-0.33,1.56-1.87,2.56-3.43,2.23
								c-13.07-2.78-29.45,1.79-29.62,1.84c-0.26,0.07-0.53,0.11-0.79,0.11c-1.26,0-2.42-0.83-2.78-2.11
								c-0.43-1.54,0.46-3.14,2-3.57C165.37,128.35,182.59,123.55,197.05,126.62z"/>
							<path class="st1" d="M191.39,113.25c0.49,3.23-4.9,6.72-12.02,7.8c-7.13,1.07-13.3-0.68-13.79-3.91
								c-0.49-3.23,4.9-6.72,12.02-7.8C184.73,108.26,190.9,110.01,191.39,113.25z"/>
							<ellipse class="st1" cx="173.49" cy="145.56" rx="3.94" ry="5.08"/>
							<path class="st0" d="M169.55,145.56c0,2.8,1.76,5.08,3.94,5.08s3.94-2.27,3.94-5.08c0-2.8-1.76-5.08-3.94-5.08
								S169.55,142.76,169.55,145.56z M178.49,132.41c7.21,0,13.05,7.53,13.05,16.82c0,9.29-5.84,16.82-13.05,16.82
								s-13.05-7.53-13.05-16.82C165.44,139.94,171.28,132.41,178.49,132.41z"/>
							<path class="st0" d="M132.36,206.84c2.22,3.05,6.13,5.79,13.02,5.35c4.96-0.31,8.65-1.81,10.97-4.46
								c0.3-0.34,0.56-0.69,0.8-1.04C146.84,199.84,135.83,204.91,132.36,206.84z M171.07,184.69c2.35,4.87,2.38,9.58,0.08,12.93
								c-1.62,2.35-4.23,3.81-7.55,4.26c-0.25,2.25-1.09,5.74-3.75,8.8c-3.15,3.63-7.92,5.68-14.17,6.08
								c-0.61,0.04-1.19,0.06-1.76,0.06c-8.72,0-13.4-4.33-15.81-8.1c-1.62-2.53-2.42-5.11-2.8-6.83c-3.34-0.44-5.98-1.9-7.6-4.26
								c-2.3-3.35-2.27-8.06,0.08-12.93c0.55-1.14,1.92-1.61,3.05-1.07c1.14,0.55,1.61,1.92,1.07,3.05
								c-1.59,3.3-1.75,6.42-0.43,8.35c0.99,1.44,2.85,2.27,5.33,2.4c0.08-0.02,0.16-0.03,0.24-0.03c0.24-0.02,0.48,0,0.71,0.05
								c0.35-0.01,0.71-0.02,1.08-0.05c2.38-0.2,4.73-0.87,6.99-1.99c3.9-1.95,6.14-5.79,6.14-10.55v-2.87
								c-0.15-0.05-0.29-0.11-0.44-0.17c-5.16-2.19-15.08-7.12-12.66-11.75c3.23-6.19,15.9-5.38,15.9-5.38s14.16-0.15,15.18,5.52
								c0.98,5.48-7.67,9.76-12.44,11.68c-0.19,0.08-0.38,0.14-0.58,0.2v2.77c0,4.76,2.24,8.6,6.14,10.55
								c2.25,1.12,4.6,1.79,6.98,1.99c0.29,0.02,0.58,0.04,0.86,0.05c0.11-0.03,0.22-0.05,0.34-0.06c0.24-0.02,0.47,0,0.69,0.05
								c2.55-0.11,4.46-0.94,5.47-2.41c1.33-1.93,1.16-5.05-0.43-8.35c-0.55-1.14-0.07-2.5,1.06-3.05
								C169.16,183.07,170.52,183.55,171.07,184.69z M130.05,202.08l0.39-0.27c-0.15,0.02-0.3,0.04-0.45,0.06
								C130.01,201.94,130.03,202.01,130.05,202.08z"/>
							<path class="st0" d="M124.57,128.55c1.54,0.44,2.43,2.04,1.99,3.57c-0.36,1.27-1.52,2.11-2.78,2.11
								c-0.26,0-0.53-0.04-0.79-0.11c-0.23-0.07-16.61-4.6-29.62-1.84c-1.56,0.33-3.1-0.67-3.43-2.23c-0.33-1.56,0.66-3.1,2.23-3.43
								C106.64,123.55,123.85,128.35,124.57,128.55z"/>
							<path class="st1" d="M111.62,109.34c7.13,1.07,12.51,4.57,12.02,7.8c-0.49,3.23-6.66,4.98-13.78,3.91
								c-7.13-1.07-12.51-4.57-12.02-7.8C98.32,110.01,104.49,108.26,111.62,109.34z"/>
							<path class="st1" d="M115.73,150.64c-2.18,0-3.94-2.27-3.94-5.08c0-2.8,1.76-5.08,3.94-5.08c2.18,0,3.94,2.27,3.94,5.08
								C119.67,148.37,117.91,150.64,115.73,150.64z"/>
							<path class="st0" d="M111.79,145.56c0,2.8,1.76,5.08,3.94,5.08c2.18,0,3.94-2.27,3.94-5.08c0-2.8-1.76-5.08-3.94-5.08
								C113.56,140.48,111.79,142.76,111.79,145.56z M110.74,132.41c7.21,0,13.05,7.53,13.05,16.82c0,9.29-5.84,16.82-13.05,16.82
								c-7.21,0-13.05-7.53-13.05-16.82C97.69,139.94,103.53,132.41,110.74,132.41z"/>
						</g>
					</g>
				</g>
			</g>
			<g>
				<g>
					<g id="XMLID_00000004539189346384922770000006223258614797461923_">
						<g>
							<path class="st8" d="M256.84,156.52c8.03,9.42,10.38,19.83,6.93,30.36c-1.36-2.83-3.22-5.64-5.51-8.32l-4.6-5.38l0.47,7.07
								c0.75,11.32-3.26,23.69-11.28,34.82c-6.48,8.98-14.86,16.43-22.84,22.69c0.04-3.67-0.86-7.46-2.64-10.76l-2.08-3.85
								l-2.06,3.86c-3.89,7.27-11.39,13.38-22.29,18.17c-4.04,1.78-8.31,3.31-12.43,4.8c-5.43,1.96-11.04,3.98-16.35,6.61
								c-7.25,3.58-14.58,10.56-17.85,13.88c-3.26-3.32-10.6-10.3-17.85-13.88c-5.32-2.63-10.93-4.65-16.35-6.61
								c-4.12-1.49-8.39-3.03-12.43-4.8c-10.9-4.79-18.4-10.9-22.29-18.17l-2.06-3.86L71.23,227c-1.79,3.3-2.69,7.09-2.64,10.76
								c-7.98-6.26-16.36-13.7-22.84-22.69c-8.02-11.13-12.03-23.5-11.28-34.82l0.47-7.07l-4.6,5.38c-2.3,2.68-4.15,5.49-5.51,8.32
								c-3.45-10.54-1.1-20.94,6.93-30.36c1.38-1.62,2.89-3.1,4.48-4.68c1.49-1.47,3.03-2.99,4.46-4.63
								c1.13-1.29,2.47-2.74,3.89-4.28c5.22-5.63,11.72-12.65,13.97-18.94c8.78-24.53,27.98-37.02,42.55-43.17
								c16.42-6.93,32.89-8.45,39.41-7.77l0.12,0.01h7.31l0.12-0.01c6.52-0.68,22.99,0.84,39.41,7.77
								c14.57,6.15,33.77,18.63,42.55,43.17c2.25,6.29,8.75,13.31,13.97,18.94c1.42,1.53,2.77,2.99,3.89,4.28
								c1.43,1.64,2.97,3.16,4.46,4.63C253.96,153.42,255.46,154.9,256.84,156.52z M235.13,174.7c0.27-10.21-1.46-17.75-1.74-18.89
								c-0.04-0.28-0.08-0.56-0.12-0.83c-2.25-15.54-6.94-28.82-13.92-39.46c-8.19-12.47-19.62-21.46-34-26.73l-17.45-8.76
								l1.49,5.17c0.95,3.29,3.07,6.62,5.68,9.18c-11.86,0.39-21.95-4.15-32.07-14.27l-1.48-1.48l-1.64,1.3
								c-8.7,6.91-19.18,11.39-30.14,12.98c0.18-0.13,0.35-0.26,0.53-0.38c2.29-1.67,4.66-3.41,7.19-5.29l8.09-6.04l-9.93,1.83
								c-16.38,3.03-30.84,12.26-41.81,26.72c-9.63,12.68-16.23,29.04-18.6,46.06c-0.28,1.14-2.01,8.68-1.74,18.89
								c0.17,6.39,1.1,12.5,2.75,18.16c2.08,7.12,5.33,13.56,9.64,19.12c6.29,8.11,14.92,14.45,25.65,18.86
								c12.37,5.08,27.75,7.66,45.72,7.66h14.13c17.96,0,33.35-2.58,45.72-7.66c10.73-4.41,19.36-10.75,25.65-18.86
								c4.32-5.56,7.56-12,9.64-19.12C234.03,187.19,234.96,181.08,235.13,174.7z"/>
							<path class="st9" d="M256.84,156.52c-1.38-1.62-2.89-3.1-4.48-4.68c-1.49-1.47-3.03-2.99-4.46-4.63
								c-1.13-1.29-2.47-2.74-3.89-4.28c-5.22-5.63-11.72-12.65-13.97-18.94c-8.78-24.53-27.98-37.02-42.55-43.17
								c-2.8-1.18-5.6-2.2-8.35-3.09l-1.02,0.88c0,0,35.24,12.53,47.61,40.5c12.01,27.16,28.96,35.04,33.03,43.83
								c4.34,9.37,4.95,19.27,4.97,23.83c0.02,0.03,0.03,0.07,0.05,0.1C267.22,176.35,264.88,165.95,256.84,156.52z"/>
							<path class="st10" d="M175.07,94.38c-0.72-0.71-1.4-1.47-2.03-2.27c-12.54-0.8-22.72-7.05-22.72-7.05s1.54,1.56,2.68,3.23
								C159.93,92.67,167.1,94.64,175.07,94.38z"/>
							<path class="st10" d="M197.08,230.84c-12.37,5.08-27.75,7.66-45.72,7.66h-14.13c-17.96,0-33.35-2.58-45.72-7.66
								c-4.24-1.74-8.15-3.79-11.72-6.12c4.63,4.73,9.8,8.93,15.64,12.02c14.19,7.5,26.68,8.15,39.37,17.98
								c-0.03-2.16-0.93-4.16-1.82-6.13c4.04,3.21,7.31,7.39,9.44,12.09c2.97-4.52,6.84-8.25,11.15-11.53
								c-0.48,2.08-0.96,4.17-1.44,6.25c11.78-10.95,29.43-12.16,43.88-19.23c9.26-4.54,17.02-11.53,23.03-19.9
								C213.21,222.35,205.85,227.24,197.08,230.84z"/>
							<path class="st10" d="M232.36,192.86c1.65-5.67,2.58-11.78,2.75-18.16c0.27-10.21-1.46-17.75-1.74-18.89
								c-2.37-17.03-8.97-33.38-18.6-46.06c-0.5-0.66-1.01-1.31-1.53-1.96c7.7,7.74,14.04,16.82,18.5,26.8
								c2.57,5.76,4.55,11.78,7.43,17.39c2.89,5.61,6.83,10.89,12.33,13.99c-3.74,0.06-7.48,0.13-11.22,0.19
								c3.05,3.63,3.82,8.66,3.85,13.4c0.11,15.49-6.59,30.9-17.99,41.39c1.69-4.28,2.6-8.86,2.67-13.46
								c-2.7,3.59-6.11,6.62-9.96,8.95c1.37-1.42,2.65-2.9,3.85-4.45C227.03,206.42,230.28,199.99,232.36,192.86z"/>
							<path class="st10" d="M56.23,192.86c-1.65-5.67-2.58-11.78-2.75-18.16c-0.27-10.21,1.46-17.75,1.74-18.89
								c2.37-17.03,8.97-33.38,18.6-46.06c0.5-0.66,1.01-1.31,1.53-1.96c-7.7,7.74-14.04,16.82-18.5,26.8
								c-2.57,5.76-4.55,11.78-7.43,17.39c-2.89,5.61-6.83,10.89-12.33,13.99c3.74,0.06,7.48,0.13,11.22,0.19
								c-3.05,3.63-3.82,8.66-3.85,13.4c-0.11,15.49,6.59,30.9,17.99,41.39c-1.69-4.28-2.6-8.86-2.67-13.46
								c2.7,3.59,6.11,6.62,9.96,8.95c-1.37-1.42-2.65-2.9-3.85-4.45C61.55,206.42,58.31,199.99,56.23,192.86z"/>
							<path class="st0" d="M269.75,173.14c0.96,7.05-0.41,14.22-4.06,21.32l-2.97,5.77l-1.42-6.33c-0.48-2.14-1.35-4.34-2.56-6.52
								c-0.38,4.14-1.28,8.35-2.71,12.56c-2.09,6.17-5.24,12.18-9.35,17.89c-8.14,11.3-19.01,20.15-28.56,27.32l-6.32,4.74
								l2.69-7.42c1.01-2.78,1.09-6.05,0.32-9.16c-2.15,2.93-4.85,5.65-8.05,8.13c-3.84,2.97-8.52,5.68-13.92,8.05
								c-4.19,1.84-8.53,3.41-12.73,4.92c-5.3,1.91-10.79,3.89-15.86,6.4c-8.71,4.3-18.1,14.55-18.19,14.65l-1.74,1.91l-1.74-1.91
								c-0.09-0.1-9.48-10.35-18.19-14.65c-5.08-2.51-10.56-4.49-15.86-6.4c-4.2-1.51-8.54-3.08-12.73-4.92
								c-5.4-2.37-10.08-5.08-13.92-8.05c-3.2-2.48-5.9-5.21-8.06-8.13c-0.77,3.11-0.69,6.38,0.32,9.16l2.69,7.42l-6.32-4.74
								c-9.55-7.17-20.42-16.02-28.56-27.32c-4.11-5.7-7.26-11.72-9.35-17.89c-1.43-4.22-2.34-8.42-2.71-12.56
								c-1.22,2.19-2.08,4.38-2.56,6.52l-1.42,6.33l-2.97-5.77c-3.65-7.09-5.02-14.27-4.06-21.32c0.93-6.9,4.07-13.52,9.32-19.67
								c1.51-1.77,3.16-3.4,4.76-4.98c1.49-1.47,2.91-2.86,4.22-4.37c1.17-1.35,2.54-2.82,3.99-4.38
								c4.93-5.32,11.06-11.94,12.99-17.33c4.05-11.32,10.51-21.2,19.19-29.34c7.22-6.77,15.95-12.35,25.96-16.57
								c9.86-4.16,19.03-6.17,24.99-7.13c6.4-1.03,12.59-1.4,16.61-1h6.83c4.02-0.4,10.21-0.02,16.61,1
								c5.96,0.95,15.13,2.96,24.99,7.13c10.01,4.23,18.75,9.8,25.96,16.57c8.68,8.15,15.14,18.02,19.19,29.34
								c1.93,5.39,8.06,12.01,12.99,17.33c1.45,1.56,2.81,3.04,3.99,4.38c1.31,1.5,2.72,2.89,4.21,4.37c1.6,1.58,3.25,3.2,4.76,4.98
								C265.68,159.62,268.81,166.24,269.75,173.14z M263.78,186.89c3.45-10.54,1.1-20.94-6.93-30.36c-1.38-1.62-2.89-3.1-4.48-4.68
								c-1.49-1.47-3.03-2.99-4.46-4.63c-1.13-1.29-2.47-2.74-3.89-4.28c-5.22-5.63-11.72-12.65-13.97-18.94
								c-8.78-24.53-27.98-37.02-42.55-43.17c-16.42-6.93-32.89-8.45-39.41-7.77l-0.12,0.01h-7.31l-0.12-0.01
								c-6.52-0.68-22.99,0.84-39.41,7.77C86.55,86.98,67.35,99.46,58.57,124c-2.25,6.29-8.75,13.31-13.97,18.94
								c-1.42,1.53-2.77,2.99-3.89,4.28c-1.43,1.64-2.97,3.16-4.46,4.63c-1.6,1.57-3.1,3.06-4.48,4.68
								c-8.03,9.42-10.38,19.83-6.93,30.36c1.36-2.83,3.21-5.64,5.51-8.32l4.6-5.38l-0.47,7.07c-0.75,11.32,3.26,23.69,11.28,34.82
								c6.48,8.98,14.86,16.43,22.84,22.69c-0.04-3.67,0.86-7.46,2.64-10.76l2.08-3.85l2.06,3.86c3.89,7.27,11.39,13.38,22.29,18.17
								c4.04,1.78,8.31,3.31,12.43,4.8c5.43,1.96,11.04,3.98,16.35,6.61c7.25,3.58,14.58,10.56,17.85,13.88
								c3.26-3.32,10.6-10.3,17.85-13.88c5.32-2.63,10.93-4.65,16.35-6.61c4.12-1.49,8.39-3.03,12.43-4.8
								c10.9-4.79,18.4-10.9,22.29-18.17l2.06-3.86l2.08,3.85c1.79,3.3,2.69,7.09,2.64,10.76c7.98-6.26,16.36-13.7,22.84-22.69
								c8.02-11.13,12.03-23.5,11.28-34.82l-0.47-7.07l4.6,5.38C260.56,181.24,262.42,184.05,263.78,186.89z"/>
							<path class="st0" d="M233.4,155.81c0.28,1.14,2.01,8.68,1.74,18.89c-0.17,6.39-1.1,12.5-2.75,18.16
								c-2.08,7.12-5.33,13.56-9.64,19.12c-6.29,8.11-14.92,14.45-25.65,18.86c-12.37,5.08-27.75,7.66-45.72,7.66h-14.13
								c-17.96,0-33.35-2.58-45.72-7.66c-10.73-4.41-19.36-10.75-25.65-18.86c-4.32-5.56-7.56-12-9.64-19.12
								c-1.65-5.67-2.58-11.78-2.75-18.16c-0.27-10.21,1.46-17.75,1.74-18.89c2.37-17.03,8.97-33.38,18.6-46.06
								c10.97-14.45,25.43-23.69,41.81-26.72l9.93-1.83l-8.09,6.04c-2.53,1.89-4.9,3.62-7.19,5.29c-0.17,0.13-0.35,0.26-0.53,0.38
								c10.96-1.59,21.44-6.07,30.14-12.98l1.64-1.3l1.48,1.48c10.12,10.12,20.22,14.66,32.07,14.27c-2.61-2.56-4.73-5.89-5.68-9.18
								l-1.49-5.17l17.45,8.76c14.37,5.27,25.81,14.26,34,26.73c6.99,10.64,11.67,23.91,13.92,39.46
								C233.32,155.25,233.36,155.53,233.4,155.81z M230.42,174.57c0.27-10.2-1.6-17.66-1.62-17.73l-0.03-0.13l-0.02-0.13
								c-0.04-0.31-0.09-0.62-0.13-0.93c-4.68-32.28-19.82-53.3-45.01-62.49l-0.13-0.05l-5.97-2.99c1.51,1.71,3.29,3.09,4.99,3.77
								l7.89,3.14l-8.38,1.37c-2.83,0.46-5.59,0.7-8.27,0.7c-11.93,0-22.48-4.63-32.6-14.22c-11.35,8.44-25.27,13.18-39.42,13.38
								l-7.26,0.1l5.82-4.34c1.09-0.82,2.15-1.6,3.19-2.36c-25.38,11.18-40.07,39.18-43.62,64.92l-0.02,0.13l-0.03,0.13
								c-0.02,0.07-1.91,7.65-1.62,17.89c0.27,9.33,2.47,22.87,11.43,34.4c12.72,16.36,35.47,24.66,67.62,24.66h14.13
								c32.17,0,54.93-8.31,67.65-24.69C227.99,197.53,230.17,183.94,230.42,174.57z"/>
						</g>
					</g>
				</g>
			</g>
			<g>
				<g>
					<path class="st0" d="M84.74,111.03c-2.53,0.2-4.89,0.3-7.07,0.3c-9.85-0.02-14.17-2.1-16.49-3.22L61,108.02
						c-2.84-1.37-3.89-3.4-4.28-4.86c-0.33-1.25-0.3-2.62,0.07-3.97l-0.43-0.63c-3.27-1.96-4.19-4.3-4.37-5.97
						c-0.14-1.36,0.15-2.74,0.85-4.01c-1.81-3.4-5.89-8.98-11.34-15.52c-0.44,0.09-0.88,0.15-1.31,0.18
						c-5.38,0.43-10.48-3.04-11.91-8.44c-0.78-2.94-0.37-6.01,1.16-8.65c1.53-2.64,3.99-4.52,6.93-5.3
						c2.94-0.78,6.01-0.37,8.65,1.16c0.99,0.57,1.87,1.27,2.62,2.08c1.15-2.33,3.26-4.17,5.96-4.88c2.4-0.64,4.92-0.3,7.07,0.95
						c2.16,1.25,3.7,3.26,4.34,5.67c0.41,1.53,0.41,3.14,0.03,4.66c0.76,0.95,1.74,2.03,2.88,2.99c0.68,0.58,1.35,1.06,2,1.44
						c-0.34-3.78-2.31-8.75-5.66-14.23c-2.06-0.11-4.06-0.77-5.79-1.94c-2.28-1.54-3.93-3.85-4.64-6.51
						c-0.78-2.94-0.37-6.01,1.16-8.65c1.53-2.64,3.99-4.52,6.93-5.3c2.52-0.67,5.22-0.45,7.6,0.62c1.58,0.71,2.97,1.77,4.07,3.08
						c4.76-0.91,9.49,2.01,10.76,6.76c0.47,1.76,0.41,3.6-0.15,5.31c2.36,4.33,5.08,7.35,7.4,8.19c0.57,0.21,1.1,0.28,1.63,0.22
						c3.43-4.3,4.55-13.78,3.06-25.85c-1.5-0.57-2.89-1.42-4.08-2.52c-1.77-1.63-3.03-3.71-3.65-6.04
						c-0.87-3.25-0.41-6.66,1.28-9.58c1.69-2.92,4.42-5,7.67-5.87c3.25-0.87,6.65-0.41,9.57,1.28c2.92,1.69,5,4.42,5.87,7.67
						c0.97,3.64,0.23,7.55-1.93,10.58c4.67,11.31,10.34,19.1,15.47,21.3c0.27-0.18,0.51-0.41,0.75-0.69
						c1.53-1.8,2.37-5.42,2.36-10.05c-1.68-1.25-2.9-3.03-3.45-5.08c-1.32-4.95,1.62-10.04,6.55-11.39
						c0.78-4.26,3.96-7.83,8.29-8.98c2.94-0.78,6.01-0.37,8.65,1.16c2.64,1.53,4.52,3.99,5.3,6.93c0.78,2.92,0.34,5.95-1.06,8.47
						c1.14-1.13,2.56-1.95,4.15-2.37c2.9-0.77,5.85-0.08,8.07,1.61c0.24-1.25,0.69-2.46,1.35-3.6c1.53-2.64,3.99-4.52,6.93-5.3
						c2.94-0.78,6.01-0.37,8.65,1.16c2.64,1.53,4.52,3.99,5.3,6.93c1.47,5.52-1.39,11.18-6.47,13.39
						c-1.5,8.44-2.27,15.35-2.15,19.21c1.23,0.76,2.17,1.8,2.72,3.05c0.68,1.54,1.05,4.03-0.82,7.36l-0.06,0.76
						c1,0.99,1.7,2.16,2.03,3.41c0.39,1.46,0.48,3.75-1.31,6.35l-0.01,0.01c-0.12,0.18-0.26,0.39-0.39,0.59
						c-1.48,2.28-3.95,6.08-12.18,10.77c-9.36,5.32-24.39,10.75-44.69,16.15C108.76,107.6,95.27,110.2,84.74,111.03z M63.67,102.95
						c1.91,0.92,5.47,2.64,14.01,2.65c10.78,0.02,26.2-2.62,45.83-7.85c19.82-5.27,34.4-10.52,43.33-15.6
						c7.02-3.99,8.94-6.94,10.2-8.9c0.15-0.23,0.31-0.48,0.48-0.73c0.67-0.98,0.54-1.47,0.49-1.64c-0.11-0.41-0.51-0.88-1.06-1.25
						l-1.4-0.94l0.44-5.29l0.37-0.59c0.72-1.15,1.02-2.13,0.8-2.63c-0.19-0.44-0.89-0.69-1.1-0.76l-1.72-0.56l-0.23-1.79
						c-0.75-5.72,1.17-17.58,2.38-24.14l0.34-1.82l1.8-0.44c0.04-0.01,0.07-0.02,0.11-0.02l0.02,0c3.02-0.81,4.82-3.92,4.01-6.94
						c-0.39-1.46-1.33-2.69-2.64-3.45c-1.31-0.76-2.84-0.97-4.31-0.58c-1.46,0.39-2.69,1.33-3.45,2.64
						c-0.76,1.31-0.97,2.84-0.58,4.3c0.4,1.52,1.39,2.77,2.78,3.53l1.71,0.93l-0.24,1.94c-0.25,2-0.77,5.02-1.86,8.02
						c-3.32,9.17-9.24,11.54-13.69,11.9c-0.07,0.01-0.13,0.01-0.19,0.01l-3.25,0.22l0.2-3.25c0.1-1.56,0.27-3.26,0.48-4.95
						c-0.9,1.79-2.01,3.26-3.3,4.39l-2.15,1.88l-1.87-2.12c-0.02-0.02-0.04-0.04-0.06-0.07c-2.38-2.73-3.96-6.83-4.69-12.2
						c-0.58-4.27-0.52-8.53-0.37-11.36l0.08-1.55l1.34-0.78c2.22-1.28,3.31-3.9,2.65-6.38c-0.39-1.46-1.33-2.69-2.64-3.45
						c-1.31-0.76-2.84-0.97-4.31-0.58c-2.6,0.69-4.37,3.14-4.21,5.82l0.19,3.14l-3.15-0.11c-0.35-0.01-0.71,0.03-1.05,0.12
						c-1.92,0.51-3.06,2.49-2.55,4.4c0.27,1.03,0.99,1.88,1.96,2.33l1.58,0.74l0.07,1.74c0.19,4.87-0.29,11.5-3.69,15.5
						c-1.11,1.31-2.46,2.25-4,2.79l-0.87,0.3l-0.88-0.26c-10.14-2.98-17.37-17.95-20.78-26.61l-0.68-1.72l1.29-1.33
						c1.7-1.74,2.36-4.27,1.74-6.6c-0.47-1.78-1.61-3.27-3.21-4.19c-1.6-0.93-3.46-1.18-5.23-0.7c-1.78,0.47-3.27,1.61-4.19,3.21
						c-0.93,1.6-1.18,3.46-0.7,5.23c0.67,2.53,2.77,4.49,5.35,5l1.99,0.39l0.29,2.01c0.57,4.03,1.18,10.1,0.83,16.14
						c-0.45,7.74-2.37,13.43-5.72,16.91l-0.51,0.52l-0.7,0.22c-1.96,0.62-3.97,0.57-5.97-0.15c-5.1-1.84-8.89-7.62-11.18-12.15
						l-0.67-1.33l0.7-1.31c0.43-0.81,0.54-1.74,0.31-2.62c-0.51-1.92-2.49-3.06-4.4-2.55c-0.24,0.06-0.47,0.15-0.69,0.26l-2.52,1.27
						l-1.3-2.51c-1.22-2.34-3.95-3.55-6.5-2.87c-1.46,0.39-2.69,1.33-3.45,2.64c-0.76,1.31-0.97,2.84-0.58,4.3
						c0.72,2.7,3.35,4.5,6.13,4.18l1.77-0.2l0.96,1.5c1.53,2.37,3.68,6.03,5.27,10c1.98,4.96,2.63,9.25,1.93,12.76
						c-0.03,0.17-0.07,0.34-0.11,0.48l-0.6,2.47l-2.52-0.3c-2.01-0.24-4.01-1.02-6-2.33c1.05,1.4,2.08,2.83,2.95,4.17l1.89,2.89
						l-3.19,1.32c-2.83,1.17-5.75,1.41-8.71,0.71c-2.8-0.67-5.62-2.19-8.38-4.53c-2.68-2.27-4.78-4.88-6.07-6.67l-0.99-1.37
						l0.73-1.53c0.58-1.22,0.71-2.6,0.36-3.89c-0.39-1.46-1.33-2.69-2.64-3.45c-1.31-0.76-2.84-0.97-4.3-0.58
						c-1.46,0.39-2.69,1.33-3.45,2.64c-0.76,1.31-0.97,2.84-0.58,4.3c0.39,1.46,1.33,2.69,2.64,3.45s2.84,0.97,4.31,0.58
						c0.22-0.06,0.44-0.13,0.67-0.23l1.92-0.77l1.34,1.58C49,73.06,56.58,82.43,58.78,87.77l0.69,1.67l-1.21,1.34
						c-0.15,0.16-0.62,0.73-0.57,1.21c0.06,0.54,0.81,1.25,2,1.88l0.62,0.33l3.01,4.37l-0.76,1.51c-0.11,0.22-0.46,1-0.3,1.61
						c0.04,0.16,0.18,0.66,1.24,1.18L63.67,102.95z M51.13,66.19c0.93,1.09,2.05,2.27,3.31,3.33c2.59,2.2,5.03,3.37,7.38,3.54
						c-1.57-2.09-3.22-4.14-4.44-5.61C55.15,67.79,52.95,67.3,51.13,66.19z M55.7,54.64c-0.22,0.02-0.43,0.05-0.64,0.11
						c-0.93,0.25-1.7,0.84-2.19,1.68c-0.48,0.83-0.61,1.8-0.37,2.73c0.51,1.92,2.49,3.07,4.41,2.55c0.14-0.04,0.28-0.08,0.42-0.14
						l1.29-0.52l0.61-1.27c0.26-0.55,0.51-1.42,0.23-2.47c-0.25-0.93-0.84-1.7-1.67-2.19C57.14,54.75,56.42,54.58,55.7,54.64z
						 M164.47,38.84c-0.34,1.95-0.79,4.73-1.12,7.48c2.35-1.21,4.15-3.61,5.46-7.23c0.64-1.76,1.05-3.56,1.31-5.06
						c-0.29-0.24-0.57-0.48-0.84-0.75C168.52,35.67,166.8,37.71,164.47,38.84z M150.96,27.22c-0.21,6.08,0.46,11.28,1.85,14.83
						c0.19-0.4,0.37-0.84,0.53-1.29c0.41-1.14,0.7-2.3,0.89-3.32c-1.36-1.21-2.36-2.8-2.83-4.58c-0.6-2.27-0.34-4.63,0.74-6.7
						C151.77,26.53,151.38,26.89,150.96,27.22z M160.12,26.86c-0.22,0.02-0.43,0.05-0.65,0.11c-0.93,0.25-1.7,0.84-2.19,1.67
						c-0.48,0.83-0.61,1.8-0.37,2.73c0.26,0.96,0.88,1.76,1.77,2.24l1.22,0.66l1.35-0.33c0.03-0.01,0.06-0.01,0.09-0.02l0,0
						c0.92-0.25,1.69-0.84,2.17-1.67c0.48-0.83,0.61-1.8,0.37-2.73c-0.25-0.93-0.84-1.7-1.68-2.19
						C161.57,26.96,160.84,26.8,160.12,26.86z M88.5,67.09L77.28,55.57c-1.7-1.75-3.38-3.93-4.97-6.47l-3.05-4.88L75,44.73
						c0.24,0.02,0.48,0.02,0.72-0.01l1.77-0.2l0.96,1.5c0.96,1.49,2.34,3.81,3.5,6.39L88.5,67.09z M137.6,51.17l-1.73-11.22
						c-0.53-3.46-0.49-6.96-0.37-9.28l0.08-1.55l1.34-0.78c0.42-0.24,0.79-0.57,1.08-0.97l5.31-7.14l-0.16,8.9
						c-0.08,4.43-0.67,8.24-1.77,11.34L137.6,51.17z"/>
				</g>
				<g>
					<g>
						<g>
							<g id="XMLID_00000085248440700905417500000016443948742714102163_">
								<g>
									<path class="st11" d="M161.33,64.19c0.15,0.2,0.28,0.42,0.35,0.68c0.14,0.55-0.02,1.17-0.48,1.84
										c-0.11,0.17-0.23,0.35-0.36,0.54c-1,1.54-2.51,3.87-8.08,7.02c-6.82,3.86-17.87,7.84-32.86,11.83
										c-34.71,9.23-42.76,5.35-45.79,3.88l-0.13-0.06c-0.73-0.35-1.18-0.81-1.33-1.36c-0.08-0.29-0.07-0.58-0.02-0.85
										c0.1,0.11,0.2,0.21,0.33,0.32c1.82,1.57,5.53,2.27,11.02,2.1c7.76-0.24,18.92-2.25,33.16-5.95l4.22-1.12
										c30.68-8.34,38.62-14.66,39.87-18.48C161.27,64.43,161.3,64.3,161.33,64.19z"/>
									<path class="st12" d="M159.97,61.78l-0.07,0.85l-0.02,0.28c0,0-0.01-0.01-0.01-0.02c0,0,0.01,0.01,0.01,0.02l-0.02,0.2
										l0.1,0.05c0.04,0.22,0.05,0.57-0.13,1.06c-0.86,2.3-6.35,8.6-38.85,17.44l-4.21,1.12c-32.68,8.5-40.8,5.8-42.78,4.24
										c-0.41-0.32-0.59-0.62-0.68-0.83l0.04-0.06l-0.1-0.15c-0.01-0.05-0.01-0.07-0.01-0.08c0,0.02,0,0.03,0,0.03l-0.03,0
										l-0.63-0.92c4.65,0.91,16.04,1.06,42.8-5.91l4.31-1.15c13.26-3.6,23.75-7.21,31.17-10.7
										C155.6,65.03,158.36,63.18,159.97,61.78z"/>
									<path class="st13" d="M159.9,62.63l0.07-0.85c-1.61,1.4-4.36,3.25-9.09,5.48c-3.72,1.75-8.21,3.53-13.42,5.32
										c-0.05,1.3-0.34,2.61-0.8,3.83c-0.08,0.21-0.16,0.41-0.25,0.62c18.96-6.39,22.74-10.93,23.44-12.8
										c0.18-0.49,0.17-0.84,0.13-1.06l-0.1-0.05l0.02-0.2c-0.01-0.01-0.01-0.02-0.01-0.02c0.01,0.01,0.01,0.01,0.01,0.02
										L159.9,62.63z"/>
									<path class="st14" d="M160.99,56.66c0.36,0.82-0.19,1.96-0.73,2.79c-1.86,2.33-9.57,8.61-40.94,17.13l-4.3,1.15
										c-13.16,3.43-23.93,5.48-32.03,6.11c-7.29,0.57-10.52-0.18-11.8-0.69c-1.24-0.64-1.94-1.35-2.02-2.05
										c-0.03-0.32,0.06-0.62,0.19-0.88c0.06,0.07,0.13,0.15,0.2,0.22c1.45,1.39,4.93,1.94,10.32,1.62
										c7.8-0.45,19.42-2.67,34.53-6.61l4.31-1.15c15.07-4.09,26.25-7.94,33.24-11.42c4.84-2.41,7.58-4.61,8.15-6.54
										c0.05-0.16,0.08-0.31,0.09-0.45C160.52,56.06,160.83,56.3,160.99,56.66z"/>
									<path class="st15" d="M158.9,34.77l1.82,0.71c-0.55,2.85-2.77,14.92-1.9,19.54l0.06,0.32l-0.09,0.08
										c0,0,0.06,0.2-0.03,0.52c-0.45,1.53-4.71,7.29-40.4,16.99l-4.3,1.15c-14.68,3.82-26.03,6.02-33.73,6.53
										c-6.68,0.44-8.92-0.5-9.66-1.1c-0.18-0.15-0.28-0.28-0.33-0.38l0.07-0.06l-0.16-0.47c-1.54-4.45-9.47-13.82-11.36-16.02
										l1.23-1.52c0.84,1.25,2.59,3.63,4.99,5.68c3.64,3.09,7.35,4.19,10.9,3.24c0.93-0.25,1.84-0.63,2.74-1.16
										c2.09-1.22,3.39-3.02,3.86-5.34c1.34-6.68-4.63-15.76-6.39-18.26l2.89-1.71c1.16,2.55,5.24,10.68,11.02,12.77
										c2.22,0.8,4.45,0.63,6.61-0.52c4.27-2.26,6.44-7.89,6.45-16.71c0.01-5.18-0.76-9.99-1.07-11.71l3.6-0.96
										c0.58,1.64,2.31,6.21,4.89,10.7c4.4,7.65,9.08,11.45,13.91,11.3c2.45-0.08,4.47-1.03,6-2.83
										c3.98-4.69,3.48-13.77,3.22-16.56l3.36,0.04c-0.29,3.05-0.95,13.9,3.53,19.02c1.56,1.78,3.58,2.7,6,2.72
										c5.02,0.05,8.75-2.92,10.8-8.59C158.46,39.21,158.79,36.27,158.9,34.77z"/>
									<path class="st15" d="M78.73,68.82c-0.9,0.53-1.81,0.91-2.74,1.16c-2.1,0.56-4.25,0.4-6.42-0.46l7.26,11.2
										c1,0.01,2.15-0.02,3.48-0.11c2.58-0.17,5.56-0.53,8.94-1.08l-8.21-12.67C80.43,67.62,79.66,68.27,78.73,68.82z"/>
									<path class="st15" d="M146.59,50.76c-1.13-0.01-2.17-0.22-3.12-0.61l-0.83,15.15c5.38-2.03,8.97-3.75,11.37-5.16L154.74,47
										C152.66,49.51,149.91,50.79,146.59,50.76z"/>
									<path class="st15" d="M124.49,48.37c-4.82,0.16-9.5-3.65-13.91-11.3c-2.58-4.49-4.3-9.05-4.89-10.7l-3.6,0.96
										c0.31,1.72,1.08,6.54,1.07,11.71c-0.02,8.83-2.19,14.45-6.45,16.71c-0.75,0.4-1.51,0.68-2.27,0.84l9.98,19.86
										c3.03-0.71,6.23-1.5,9.61-2.38l4.3-1.15c3.49-0.95,6.67-1.86,9.59-2.73l-1.2-22.18C126.03,48.22,125.29,48.34,124.49,48.37
										z"/>
									<path class="st0" d="M73.26,85.98l0.1,0.15l-0.04,0.06c0.08,0.21,0.27,0.5,0.68,0.83c1.98,1.56,10.1,4.27,42.78-4.24
										l4.21-1.12c32.49-8.83,37.99-15.14,38.85-17.44c0.18-0.49,0.17-0.84,0.13-1.06l-0.1-0.05l0.02-0.2
										c-0.01-0.01-0.01-0.02-0.01-0.02c0.01,0.01,0.01,0.01,0.01,0.02l0.02-0.28l0.07-0.85c-1.61,1.4-4.36,3.25-9.09,5.48
										c-7.43,3.5-17.91,7.1-31.17,10.7l-4.31,1.15c-26.75,6.97-38.15,6.81-42.8,5.91l0.63,0.92l0.03,0c0,0,0-0.01,0-0.03
										C73.25,85.91,73.25,85.94,73.26,85.98z M162.35,34.58l-0.12,0.59c-0.03,0.14-2.77,13.89-2.08,19.15
										c0.63,0.21,1.67,0.7,2.14,1.76c0.48,1.1,0.23,2.45-0.76,4.02l-0.18,2.2c0.53,0.36,1.4,1.08,1.7,2.19
										c0.26,0.97,0.03,1.99-0.68,3.02c-0.11,0.16-0.22,0.32-0.33,0.51c-2.12,3.27-6.54,10.08-41.77,19.45
										c-15.04,4-26.9,6.02-35.24,6.01c-6.96-0.01-9.94-1.45-11.54-2.22l-0.13-0.06c-1.13-0.54-1.84-1.31-2.09-2.28
										c-0.29-1.11,0.1-2.17,0.39-2.74l-1.25-1.82c-1.63-0.87-2.52-1.92-2.65-3.11c-0.12-1.16,0.54-2.1,0.98-2.6
										c-2.02-4.9-11.23-15.47-11.32-15.58l-0.4-0.45l3.25-4.03l0.52,0.89c0.02,0.03,2.07,3.49,5.26,6.19
										c4.13,3.5,8.16,4.15,11.96,1.92c1.75-1.02,2.79-2.46,3.18-4.39c1.41-7.02-6.52-17.66-6.6-17.77l-0.48-0.64l5.66-3.34
										l0.31,0.76c0.04,0.1,4.38,10.5,10.52,12.72c1.85,0.67,3.64,0.52,5.45-0.44c9.1-4.83,4.57-27.31,4.52-27.54l-0.14-0.66
										l6.18-1.65l0.21,0.64c0.07,0.22,7.32,21.98,17.61,21.65c2.06-0.06,3.68-0.83,4.95-2.33c4.23-4.98,2.82-16.16,2.81-16.27
										l-0.11-0.82l6.57,0.09l-0.1,0.79c-0.02,0.13-1.61,13.31,3.1,18.7c1.29,1.48,2.91,2.21,4.94,2.23
										c4.41,0.04,7.58-2.52,9.43-7.61c1.42-3.93,1.49-7.95,1.49-7.99l0.01-1.03L162.35,34.58z M160.72,35.48l-1.82-0.71
										c-0.1,1.5-0.44,4.44-1.51,7.41c-2.04,5.66-5.78,8.63-10.8,8.59c-2.42-0.02-4.44-0.94-6-2.72
										c-4.48-5.13-3.82-15.97-3.53-19.02l-3.36-0.04c0.26,2.79,0.76,11.87-3.22,16.56c-1.53,1.8-3.55,2.76-6,2.83
										c-4.82,0.16-9.5-3.65-13.91-11.3c-2.58-4.49-4.3-9.05-4.89-10.7l-3.6,0.96c0.31,1.72,1.08,6.54,1.07,11.71
										c-0.02,8.83-2.19,14.45-6.45,16.71c-2.16,1.15-4.39,1.33-6.61,0.52c-5.78-2.09-9.86-10.22-11.02-12.77l-2.89,1.71
										c1.76,2.5,7.73,11.58,6.39,18.26c-0.47,2.32-1.76,4.12-3.86,5.34c-0.9,0.53-1.81,0.91-2.74,1.16
										c-3.54,0.94-7.26-0.15-10.9-3.24c-2.4-2.04-4.16-4.43-4.99-5.68l-1.23,1.52c1.89,2.2,9.82,11.57,11.36,16.02l0.16,0.47
										l-0.07,0.06c0.05,0.1,0.15,0.23,0.33,0.38c0.74,0.6,2.98,1.55,9.66,1.1c7.71-0.51,19.06-2.71,33.73-6.53l4.3-1.15
										c35.69-9.7,39.94-15.45,40.4-16.99c0.09-0.31,0.03-0.51,0.03-0.52l0.09-0.08l-0.06-0.32
										C157.95,50.4,160.17,38.33,160.72,35.48z M160.26,59.45c0.53-0.83,1.09-1.97,0.73-2.79c-0.16-0.36-0.47-0.61-0.77-0.77
										c-0.02,0.14-0.04,0.29-0.09,0.45c-0.57,1.93-3.31,4.13-8.15,6.54c-6.99,3.49-18.18,7.33-33.24,11.42l-4.31,1.15
										c-15.11,3.93-26.73,6.16-34.53,6.61c-5.4,0.31-8.87-0.23-10.32-1.62c-0.08-0.07-0.14-0.15-0.2-0.22
										c-0.13,0.26-0.22,0.56-0.19,0.88c0.08,0.7,0.77,1.41,2.02,2.05c1.29,0.51,4.52,1.26,11.8,0.69
										c8.1-0.63,18.88-2.69,32.03-6.11l4.3-1.15C150.69,68.06,158.4,61.78,160.26,59.45z M161.68,64.87
										c-0.07-0.26-0.2-0.48-0.35-0.68c-0.03,0.12-0.06,0.24-0.1,0.37c-1.25,3.83-9.19,10.14-39.87,18.48l-4.22,1.12
										c-14.24,3.71-25.39,5.71-33.16,5.95c-5.5,0.17-9.2-0.54-11.02-2.1c-0.12-0.11-0.23-0.21-0.33-0.32
										c-0.05,0.27-0.05,0.57,0.02,0.85c0.15,0.55,0.6,1,1.33,1.36l0.13,0.06c3.03,1.46,11.08,5.35,45.79-3.88
										c14.99-3.99,26.05-7.97,32.86-11.83c5.56-3.15,7.08-5.48,8.08-7.02c0.12-0.19,0.24-0.37,0.36-0.54
										C161.66,66.03,161.82,65.41,161.68,64.87z"/>
								</g>
							</g>
							<g>
								<g id="XMLID_00000123436424951376964480000005319808251081141163_">
									<g>
										<path class="st14" d="M54.69,53.37c2.68-0.71,5.44,0.89,6.16,3.57c0.71,2.68-0.89,5.44-3.57,6.16s-5.45-0.89-6.16-3.57
											C50.4,56.84,52,54.08,54.69,53.37z"/>
										<path class="st16" d="M54.45,58.35c1.12-0.53,1.84-1.72,1.99-2.95c0.09-0.74-0.01-1.49-0.24-2.2
											c-0.5-0.02-1.01,0.03-1.52,0.16c-2,0.53-3.4,2.21-3.69,4.14c0.03,0.05,0.06,0.09,0.1,0.14
											C51.84,58.63,53.34,58.88,54.45,58.35z"/>
										<path class="st17" d="M56.87,61.71c1.65-0.83,2.8-2.54,3.06-4.37c0.11-0.79,0.06-1.6-0.12-2.37
											c-0.9-1.05-2.2-1.69-3.6-1.75c0.23,0.71,0.33,1.46,0.24,2.2c-0.15,1.23-0.87,2.42-1.99,2.95
											c-1.12,0.53-2.61,0.27-3.36-0.71c-0.03-0.05-0.07-0.09-0.1-0.14c-0.1,0.66-0.07,1.34,0.12,2.02
											c0.23,0.88,0.69,1.64,1.28,2.24C53.78,62.42,55.49,62.4,56.87,61.71z"/>
										<path class="st18" d="M59.8,54.96c0.18,0.78,0.23,1.58,0.12,2.37c-0.26,1.83-1.4,3.54-3.06,4.37
											c-1.38,0.69-3.08,0.72-4.47,0.06c1.23,1.24,3.07,1.81,4.87,1.33c2.68-0.71,4.28-3.48,3.57-6.16
											C60.64,56.18,60.28,55.51,59.8,54.96z"/>
										<path class="st0" d="M54.32,51.99c3.44-0.92,6.99,1.14,7.91,4.58c0.92,3.44-1.14,6.99-4.58,7.91
											c-3.44,0.92-6.99-1.14-7.91-4.58C48.82,56.45,50.88,52.9,54.32,51.99z M60.84,56.94c-0.71-2.68-3.47-4.28-6.16-3.57
											s-4.28,3.48-3.57,6.16c0.71,2.68,3.48,4.28,6.16,3.57S61.56,59.62,60.84,56.94z"/>
									</g>
								</g>
							</g>
							<g>
								<g id="XMLID_00000183247886698013444370000010062785814826951827_">
									<g>
										<path class="st14" d="M74.01,36.28c2.68-0.71,5.44,0.89,6.16,3.57c0.71,2.68-0.89,5.44-3.57,6.16
											c-2.68,0.71-5.45-0.89-6.16-3.57C69.73,39.76,71.33,37,74.01,36.28z"/>
										<path class="st16" d="M73.78,41.27c1.12-0.53,1.84-1.72,1.99-2.95c0.09-0.74-0.01-1.49-0.24-2.2
											c-0.5-0.02-1.01,0.03-1.52,0.16c-2,0.53-3.4,2.21-3.69,4.14c0.03,0.05,0.06,0.09,0.1,0.14
											C71.17,41.54,72.66,41.8,73.78,41.27z"/>
										<path class="st17" d="M76.2,44.62c1.65-0.83,2.8-2.54,3.06-4.37c0.11-0.79,0.06-1.6-0.12-2.37
											c-0.9-1.05-2.2-1.69-3.6-1.75c0.23,0.71,0.33,1.46,0.24,2.2c-0.15,1.23-0.87,2.42-1.99,2.95
											c-1.12,0.53-2.61,0.27-3.36-0.71c-0.03-0.05-0.07-0.09-0.1-0.14c-0.1,0.66-0.07,1.34,0.12,2.02
											c0.23,0.88,0.69,1.64,1.28,2.24C73.11,45.34,74.82,45.31,76.2,44.62z"/>
										<path class="st18" d="M79.13,37.87c0.18,0.78,0.23,1.58,0.12,2.37c-0.26,1.83-1.4,3.54-3.06,4.37
											c-1.38,0.69-3.08,0.72-4.47,0.06c1.23,1.24,3.07,1.81,4.87,1.33c2.68-0.71,4.28-3.48,3.57-6.16
											C79.97,39.1,79.61,38.43,79.13,37.87z"/>
										<path class="st0" d="M73.65,34.9c3.44-0.92,6.99,1.14,7.91,4.58c0.92,3.44-1.14,6.99-4.58,7.91
											c-3.44,0.92-6.99-1.14-7.91-4.58C68.15,39.36,70.2,35.82,73.65,34.9z M80.17,39.85c-0.71-2.68-3.47-4.28-6.16-3.57
											c-2.68,0.71-4.28,3.48-3.57,6.16c0.71,2.68,3.48,4.28,6.16,3.57C79.29,45.3,80.89,42.53,80.17,39.85z"/>
									</g>
								</g>
							</g>
							<g>
								<g id="XMLID_00000140728040865085376510000015785933175767339669_">
									<g>
										<path class="st14" d="M159.11,25.58c-2.68,0.71-4.28,3.48-3.57,6.16c0.71,2.68,3.48,4.28,6.16,3.57
											c2.68-0.71,4.28-3.48,3.57-6.16C164.56,26.47,161.79,24.87,159.11,25.58z"/>
										<path class="st16" d="M161.79,29.8c-1.23,0.1-2.45-0.58-3.19-1.57c-0.45-0.6-0.73-1.3-0.88-2.03
											c0.42-0.27,0.89-0.48,1.4-0.61c2-0.53,4.05,0.22,5.25,1.76c0,0.06-0.01,0.11-0.02,0.17
											C164.19,28.74,163.02,29.7,161.79,29.8z"/>
										<path class="st17" d="M161.36,33.9c-1.85,0.1-3.69-0.81-4.83-2.28c-0.49-0.63-0.85-1.36-1.07-2.12
											c0.26-1.35,1.07-2.56,2.25-3.31c0.15,0.73,0.44,1.43,0.88,2.03c0.74,0.99,1.96,1.67,3.19,1.57
											c1.23-0.1,2.4-1.06,2.56-2.29c0.01-0.06,0.01-0.11,0.02-0.17c0.41,0.52,0.72,1.13,0.9,1.81c0.23,0.88,0.22,1.76,0,2.58
											C164.39,32.99,162.9,33.82,161.36,33.9z"/>
										<path class="st18" d="M155.46,29.51c0.23,0.77,0.58,1.49,1.07,2.12c1.13,1.46,2.98,2.38,4.83,2.28
											c1.54-0.08,3.03-0.91,3.91-2.17c-0.45,1.69-1.76,3.1-3.57,3.58c-2.68,0.71-5.44-0.89-6.16-3.57
											C155.34,30.99,155.32,30.23,155.46,29.51z"/>
										<path class="st0" d="M166.65,28.79c0.92,3.44-1.14,6.99-4.58,7.91c-3.44,0.92-6.99-1.14-7.91-4.58
											c-0.92-3.44,1.14-6.99,4.58-7.91C162.19,23.29,165.73,25.34,166.65,28.79z M161.7,35.31c2.68-0.71,4.28-3.48,3.57-6.16
											c-0.71-2.68-3.48-4.28-6.16-3.57c-2.68,0.71-4.28,3.48-3.57,6.16C156.25,34.42,159.02,36.03,161.7,35.31z"/>
									</g>
								</g>
							</g>
							<g>
								<g id="XMLID_00000147940016712568747860000012443572681694344878_">
									<g>
										<path class="st14" d="M133.85,20.36c-2.68,0.71-4.28,3.48-3.57,6.16c0.71,2.68,3.48,4.28,6.16,3.57
											c2.68-0.71,4.28-3.48,3.57-6.16C139.29,21.25,136.53,19.65,133.85,20.36z"/>
										<path class="st16" d="M136.53,24.57c-1.23,0.1-2.45-0.58-3.19-1.57c-0.45-0.6-0.73-1.3-0.88-2.03
											c0.42-0.27,0.89-0.48,1.4-0.61c2-0.53,4.05,0.22,5.25,1.76c0,0.06-0.01,0.11-0.02,0.17
											C138.93,23.52,137.76,24.48,136.53,24.57z"/>
										<path class="st17" d="M136.1,28.68c-1.85,0.1-3.69-0.81-4.83-2.28c-0.49-0.63-0.85-1.36-1.07-2.12
											c0.26-1.35,1.07-2.56,2.25-3.31c0.15,0.73,0.44,1.43,0.88,2.03c0.74,0.99,1.96,1.67,3.19,1.57
											c1.23-0.1,2.4-1.06,2.56-2.29c0.01-0.06,0.01-0.11,0.02-0.17c0.41,0.52,0.72,1.13,0.9,1.81c0.23,0.88,0.22,1.76,0,2.58
											C139.13,27.77,137.64,28.6,136.1,28.68z"/>
										<path class="st18" d="M130.2,24.29c0.23,0.77,0.58,1.49,1.07,2.12c1.13,1.46,2.98,2.38,4.83,2.28
											c1.54-0.08,3.03-0.91,3.91-2.17c-0.45,1.69-1.76,3.1-3.57,3.58c-2.68,0.71-5.44-0.89-6.16-3.57
											C130.08,25.77,130.06,25.01,130.2,24.29z"/>
										<path class="st0" d="M141.39,23.56c0.92,3.44-1.14,6.99-4.58,7.91c-3.44,0.92-6.99-1.14-7.91-4.58
											c-0.92-3.44,1.14-6.99,4.58-7.91C136.92,18.07,140.47,20.12,141.39,23.56z M136.43,30.09c2.68-0.71,4.28-3.48,3.57-6.16
											c-0.71-2.68-3.48-4.28-6.16-3.57c-2.68,0.71-4.28,3.48-3.57,6.16C130.99,29.2,133.75,30.8,136.43,30.09z"/>
									</g>
								</g>
							</g>
						</g>
						<path class="st15" d="M160.99,56.66c-0.16-0.36-0.47-0.61-0.77-0.77c-0.02,0.14-0.04,0.29-0.09,0.45
							c-0.57,1.93-3.31,4.13-8.15,6.54c-5.93,2.96-14.88,6.17-26.66,9.58c0.19,0.77,0.26,1.58,0.22,2.37
							c26.19-7.63,32.99-13.22,34.72-15.39C160.8,58.62,161.35,57.48,160.99,56.66z"/>
					</g>
					<g>
						<g>
							<g id="XMLID_00000146486033695604118580000003546282632248477344_">
								<g>
									<path class="st19" d="M178.5,69.75c0.2,0.26,0.37,0.56,0.46,0.9c0.19,0.72-0.02,1.54-0.63,2.43
										c-0.15,0.22-0.3,0.46-0.47,0.71c-1.32,2.04-3.32,5.12-10.67,9.28c-9.01,5.1-23.62,10.36-43.43,15.63
										c-45.87,12.2-56.51,7.06-60.52,5.13l-0.17-0.08c-0.97-0.47-1.56-1.07-1.76-1.79c-0.1-0.38-0.09-0.77-0.03-1.13
										c0.13,0.14,0.27,0.28,0.43,0.42c2.4,2.07,7.3,3,14.57,2.78c10.26-0.32,25-2.97,43.82-7.86l5.58-1.48
										c40.55-11.02,51.04-19.37,52.69-24.43C178.43,70.07,178.47,69.91,178.5,69.75z"/>
									<path class="st20" d="M176.7,66.57l-0.09,1.12l-0.03,0.38c0,0-0.01-0.01-0.02-0.02c0,0,0.01,0.01,0.02,0.03l-0.02,0.26
										l0.13,0.07c0.06,0.29,0.07,0.75-0.17,1.4c-1.13,3.04-8.4,11.37-51.34,23.04l-5.57,1.48c-43.18,11.24-53.92,7.66-56.53,5.6
										c-0.54-0.43-0.78-0.82-0.89-1.09l0.06-0.08l-0.14-0.2c-0.01-0.06-0.01-0.1-0.01-0.1c0,0.02,0,0.04,0,0.04l-0.03,0
										l-0.83-1.21c6.15,1.2,21.2,1.4,56.55-7.81l5.7-1.52c17.52-4.76,31.38-9.52,41.2-14.15
										C170.94,70.86,174.58,68.42,176.7,66.57z"/>
									<path class="st21" d="M176.61,67.7l0.09-1.12c-2.12,1.85-5.77,4.29-12.02,7.24c-4.91,2.32-10.84,4.67-17.74,7.03
										c-0.06,1.72-0.45,3.45-1.06,5.06c-0.1,0.27-0.22,0.54-0.33,0.81c25.05-8.45,30.05-14.44,30.97-16.92
										c0.24-0.65,0.23-1.11,0.17-1.4l-0.13-0.07l0.02-0.26c-0.01-0.01-0.02-0.03-0.02-0.03c0.01,0.01,0.01,0.02,0.02,0.02
										L176.61,67.7z"/>
									<path class="st22" d="M178.05,59.81c0.47,1.08-0.25,2.59-0.96,3.68c-2.46,3.08-12.65,11.38-54.1,22.64l-5.69,1.51
										c-17.39,4.53-31.63,7.24-42.33,8.08c-9.63,0.75-13.9-0.24-15.6-0.91c-1.64-0.85-2.56-1.78-2.66-2.71
										c-0.05-0.42,0.07-0.82,0.25-1.16c0.08,0.1,0.17,0.19,0.27,0.29c1.92,1.83,6.51,2.56,13.64,2.15
										c10.31-0.59,25.66-3.53,45.63-8.73l5.7-1.52c19.91-5.41,34.69-10.49,43.93-15.1c6.4-3.19,10.02-6.1,10.77-8.64
										c0.06-0.21,0.1-0.41,0.12-0.6C177.43,59.01,177.84,59.33,178.05,59.81z"/>
									<path class="st23" d="M175.29,30.88l2.4,0.94c-0.73,3.76-3.66,19.72-2.51,25.83l0.08,0.42l-0.12,0.11
										c0,0,0.08,0.27-0.05,0.68c-0.6,2.03-6.22,9.63-53.39,22.45l-5.69,1.51c-19.4,5.05-34.4,7.96-44.58,8.63
										c-8.82,0.58-11.79-0.66-12.77-1.46c-0.24-0.19-0.37-0.37-0.43-0.5l0.1-0.08l-0.22-0.63c-2.04-5.87-12.51-18.26-15.01-21.16
										l1.62-2.01c1.11,1.65,3.42,4.8,6.6,7.5c4.81,4.09,9.72,5.53,14.4,4.28c1.22-0.33,2.43-0.83,3.62-1.53
										c2.77-1.62,4.48-3.99,5.1-7.06c1.77-8.82-6.11-20.82-8.45-24.13l3.82-2.25c1.53,3.37,6.92,14.11,14.57,16.87
										c2.94,1.06,5.88,0.83,8.74-0.69c5.64-2.99,8.5-10.42,8.53-22.09c0.01-6.84-1.01-13.21-1.42-15.48l4.75-1.26
										c0.77,2.17,3.05,8.21,6.46,14.14c5.82,10.11,12,15.14,18.38,14.93c3.24-0.1,5.9-1.36,7.92-3.74
										c5.26-6.19,4.6-18.2,4.26-21.88l4.43,0.06c-0.38,4.03-1.26,18.36,4.66,25.14c2.06,2.35,4.73,3.56,7.93,3.59
										c6.63,0.06,11.57-3.86,14.27-11.35C174.71,36.75,175.15,32.86,175.29,30.88z"/>
									<path class="st24" d="M69.35,75.87c-1.19,0.69-2.39,1.2-3.62,1.53c-2.77,0.74-5.62,0.53-8.48-0.6l9.59,14.8
										c1.32,0.01,2.84-0.03,4.6-0.15c3.4-0.23,7.35-0.7,11.82-1.42L72.41,73.28C71.6,74.29,70.58,75.16,69.35,75.87z"/>
									<path class="st24" d="M159.03,52.02c-1.49-0.01-2.87-0.29-4.12-0.81l-1.1,20.03c7.11-2.68,11.86-4.96,15.03-6.81
										l0.96-17.38C167.05,50.36,163.41,52.06,159.03,52.02z"/>
									<path class="st22" d="M129.82,48.85c-6.38,0.21-12.56-4.82-18.38-14.93c-3.41-5.93-5.69-11.96-6.46-14.14l-4.75,1.26
										c0.41,2.27,1.43,8.64,1.42,15.48c-0.02,11.67-2.89,19.1-8.53,22.09c-0.99,0.53-1.99,0.89-3,1.11l13.19,26.24
										c4-0.94,8.23-1.98,12.7-3.15l5.69-1.51c4.61-1.25,8.82-2.45,12.67-3.61l-1.59-29.31
										C131.86,48.66,130.87,48.82,129.82,48.85z"/>
									<path class="st0" d="M62.12,98.56l0.14,0.2l-0.06,0.08c0.11,0.27,0.35,0.66,0.89,1.09c2.61,2.06,13.35,5.64,56.53-5.6
										l5.57-1.48c42.94-11.67,50.21-20,51.34-23.04c0.24-0.65,0.23-1.11,0.17-1.4l-0.13-0.07l0.02-0.26
										c-0.01-0.01-0.02-0.03-0.02-0.03c0.01,0.01,0.01,0.02,0.02,0.02l0.03-0.38l0.09-1.12c-2.12,1.85-5.77,4.29-12.02,7.24
										c-9.81,4.62-23.67,9.38-41.2,14.15l-5.7,1.52c-35.35,9.21-50.41,9-56.55,7.81l0.83,1.21l0.03,0c0,0,0-0.01,0-0.04
										C62.11,98.46,62.11,98.5,62.12,98.56z M179.85,30.64l-0.15,0.78c-0.04,0.19-3.65,18.36-2.75,25.3
										c0.83,0.27,2.21,0.92,2.83,2.33c0.64,1.45,0.3,3.23-1,5.31l-0.24,2.91c0.71,0.47,1.85,1.43,2.24,2.89
										c0.34,1.28,0.04,2.63-0.9,3.99c-0.14,0.21-0.29,0.43-0.44,0.67c-2.8,4.32-8.64,13.32-55.2,25.7
										c-19.87,5.29-35.54,7.96-46.57,7.94c-9.2-0.02-13.14-1.92-15.25-2.94l-0.17-0.08c-1.5-0.72-2.43-1.74-2.77-3.02
										c-0.39-1.46,0.13-2.86,0.51-3.62l-1.66-2.4c-2.16-1.15-3.34-2.53-3.5-4.11c-0.16-1.53,0.71-2.78,1.3-3.43
										c-2.67-6.48-14.84-20.45-14.96-20.59l-0.52-0.6l4.29-5.33l0.69,1.18c0.03,0.05,2.73,4.61,6.95,8.18
										c5.46,4.63,10.78,5.48,15.81,2.54c2.31-1.35,3.69-3.25,4.2-5.8c1.86-9.28-8.62-23.34-8.72-23.48l-0.64-0.84l7.48-4.41
										l0.42,1.01c0.06,0.14,5.78,13.88,13.9,16.81c2.45,0.88,4.81,0.69,7.21-0.58c12.02-6.38,6.04-36.09,5.98-36.39l-0.18-0.87
										l8.17-2.17l0.28,0.85c0.1,0.29,9.68,29.05,23.27,28.61c2.72-0.09,4.86-1.09,6.54-3.08c5.59-6.58,3.73-21.35,3.71-21.5
										l-0.14-1.08l8.68,0.11l-0.13,1.05c-0.02,0.18-2.13,17.59,4.1,24.71c1.71,1.96,3.85,2.92,6.52,2.95
										c5.83,0.05,10.02-3.33,12.46-10.06c1.88-5.19,1.96-10.5,1.96-10.56l0.02-1.37L179.85,30.64z M177.69,31.82l-2.4-0.94
										c-0.14,1.98-0.58,5.87-2,9.79c-2.7,7.48-7.63,11.41-14.27,11.35c-3.2-0.03-5.87-1.24-7.93-3.59
										c-5.92-6.78-5.04-21.11-4.66-25.14L142,23.23c0.35,3.68,1,15.69-4.26,21.88c-2.02,2.38-4.69,3.64-7.92,3.74
										c-6.38,0.21-12.56-4.82-18.38-14.93c-3.41-5.93-5.69-11.96-6.46-14.14l-4.75,1.26c0.41,2.27,1.43,8.64,1.42,15.48
										c-0.02,11.67-2.89,19.1-8.53,22.09c-2.86,1.52-5.8,1.75-8.74,0.69c-7.64-2.76-13.04-13.5-14.57-16.87L66,44.68
										c2.33,3.31,10.22,15.31,8.45,24.13c-0.62,3.07-2.33,5.44-5.1,7.06c-1.19,0.69-2.39,1.2-3.62,1.53
										c-4.68,1.25-9.6-0.2-14.4-4.28c-3.18-2.7-5.49-5.85-6.6-7.5l-1.62,2.01c2.5,2.91,12.97,15.29,15.01,21.16l0.22,0.63
										l-0.1,0.08c0.07,0.13,0.19,0.3,0.43,0.5c0.98,0.8,3.94,2.04,12.77,1.46c10.18-0.68,25.18-3.58,44.58-8.63l5.69-1.51
										c47.17-12.82,52.79-20.42,53.39-22.45c0.12-0.42,0.05-0.68,0.05-0.68l0.12-0.11l-0.08-0.42
										C174.04,51.54,176.97,35.58,177.69,31.82z M177.09,63.49c0.71-1.09,1.44-2.6,0.96-3.68c-0.21-0.48-0.62-0.8-1.02-1.02
										c-0.02,0.19-0.06,0.39-0.12,0.6c-0.75,2.55-4.38,5.45-10.77,8.64c-9.24,4.61-24.02,9.69-43.93,15.1l-5.7,1.52
										c-19.97,5.2-35.32,8.14-45.63,8.73c-7.14,0.41-11.72-0.31-13.64-2.15c-0.1-0.1-0.19-0.19-0.27-0.29
										c-0.17,0.34-0.29,0.74-0.25,1.16c0.1,0.93,1.02,1.86,2.66,2.71c1.7,0.67,5.97,1.66,15.6,0.91
										c10.7-0.83,24.95-3.55,42.33-8.08l5.69-1.51C164.44,74.87,174.63,66.57,177.09,63.49z M178.96,70.65
										c-0.09-0.34-0.26-0.64-0.46-0.9c-0.03,0.16-0.08,0.32-0.13,0.49c-1.66,5.06-12.14,13.4-52.69,24.43l-5.58,1.48
										c-18.82,4.9-33.56,7.54-43.82,7.86c-7.26,0.23-12.16-0.71-14.57-2.78c-0.16-0.14-0.3-0.28-0.43-0.42
										c-0.06,0.36-0.07,0.75,0.03,1.13c0.2,0.72,0.79,1.32,1.76,1.79l0.17,0.08c4.01,1.94,14.65,7.07,60.52-5.13
										c19.81-5.27,34.42-10.53,43.43-15.63c7.35-4.16,9.35-7.24,10.67-9.28c0.16-0.25,0.32-0.49,0.47-0.71
										C178.94,72.19,179.15,71.37,178.96,70.65z"/>
								</g>
							</g>
							<g>
								<g id="XMLID_00000156545910646259730010000001393516322896802180_">
									<g>
										<path class="st22" d="M37.58,55.46c3.54-0.94,7.19,1.17,8.14,4.72c0.94,3.54-1.17,7.2-4.72,8.14
											c-3.54,0.94-7.2-1.17-8.14-4.72C31.91,60.05,34.03,56.4,37.58,55.46z"/>
										<path class="st25" d="M37.27,62.05c1.48-0.7,2.43-2.27,2.63-3.9c0.12-0.98-0.01-1.97-0.32-2.91
											c-0.66-0.03-1.33,0.04-2,0.22c-2.65,0.7-4.49,2.92-4.87,5.46c0.04,0.06,0.08,0.12,0.13,0.18
											C33.82,62.41,35.79,62.75,37.27,62.05z"/>
										<path class="st26" d="M40.46,66.48c2.19-1.1,3.7-3.36,4.04-5.78c0.15-1.05,0.08-2.11-0.16-3.14
											c-1.19-1.38-2.91-2.24-4.76-2.32c0.3,0.94,0.44,1.93,0.32,2.91c-0.2,1.62-1.15,3.2-2.63,3.9
											c-1.48,0.7-3.45,0.36-4.43-0.94c-0.05-0.06-0.09-0.12-0.13-0.18c-0.13,0.87-0.09,1.77,0.15,2.67
											c0.31,1.16,0.91,2.16,1.7,2.96C36.38,67.42,38.64,67.39,40.46,66.48z"/>
										<path class="st27" d="M44.34,57.56c0.24,1.03,0.31,2.09,0.16,3.14c-0.34,2.42-1.86,4.68-4.04,5.78
											c-1.82,0.91-4.07,0.95-5.9,0.08c1.62,1.64,4.06,2.39,6.44,1.76c3.54-0.94,5.66-4.59,4.72-8.14
											C45.45,59.18,44.97,58.29,44.34,57.56z"/>
										<path class="st0" d="M37.09,53.63c4.55-1.21,9.24,1.51,10.45,6.06c1.21,4.55-1.51,9.24-6.06,10.45
											c-4.55,1.21-9.24-1.51-10.45-6.06C29.82,59.53,32.54,54.84,37.09,53.63z M45.71,60.17c-0.94-3.54-4.59-5.66-8.14-4.72
											c-3.54,0.94-5.66,4.59-4.72,8.14c0.94,3.54,4.59,5.66,8.14,4.72C44.54,67.37,46.65,63.72,45.71,60.17z"/>
									</g>
								</g>
							</g>
							<g>
								<g id="XMLID_00000092432363818663264840000001740291015457438649_">
									<g>
										<path class="st22" d="M63.12,32.88c3.54-0.94,7.19,1.17,8.14,4.72c0.94,3.54-1.17,7.2-4.72,8.14
											c-3.54,0.94-7.2-1.17-8.14-4.72C57.46,37.47,59.57,33.82,63.12,32.88z"/>
										<path class="st25" d="M62.81,39.47c1.48-0.7,2.43-2.27,2.63-3.9c0.12-0.98-0.01-1.97-0.32-2.91
											c-0.66-0.03-1.33,0.04-2,0.22c-2.65,0.7-4.49,2.92-4.87,5.46c0.04,0.06,0.08,0.12,0.13,0.18
											C59.36,39.83,61.33,40.17,62.81,39.47z"/>
										<path class="st26" d="M66,43.9c2.19-1.1,3.7-3.36,4.04-5.78c0.15-1.05,0.08-2.11-0.16-3.14
											c-1.19-1.38-2.91-2.24-4.76-2.32c0.3,0.94,0.44,1.93,0.32,2.91c-0.2,1.62-1.15,3.2-2.63,3.9
											c-1.48,0.7-3.45,0.36-4.43-0.94c-0.05-0.06-0.09-0.12-0.13-0.18c-0.13,0.87-0.09,1.77,0.15,2.67
											c0.31,1.16,0.91,2.16,1.7,2.96C61.93,44.85,64.18,44.81,66,43.9z"/>
										<path class="st27" d="M69.88,34.98c0.24,1.03,0.31,2.09,0.16,3.14C69.7,40.54,68.19,42.8,66,43.9
											c-1.82,0.91-4.07,0.95-5.9,0.08c1.62,1.64,4.06,2.39,6.44,1.76c3.54-0.94,5.66-4.59,4.72-8.14
											C70.99,36.6,70.51,35.72,69.88,34.98z"/>
										<path class="st0" d="M62.63,31.05c4.55-1.21,9.24,1.51,10.45,6.06c1.21,4.55-1.51,9.24-6.06,10.45
											c-4.55,1.21-9.24-1.51-10.45-6.06C55.36,36.95,58.08,32.26,62.63,31.05z M71.25,37.6c-0.94-3.54-4.59-5.66-8.14-4.72
											c-3.54,0.94-5.66,4.59-4.72,8.14c0.94,3.54,4.59,5.66,8.14,4.72C70.08,44.79,72.2,41.14,71.25,37.6z"/>
									</g>
								</g>
							</g>
							<g>
								<g id="XMLID_00000160885817804150560570000016506748020005812125_">
									<g>
										<path class="st22" d="M175.57,18.74c-3.54,0.94-5.66,4.59-4.72,8.14c0.94,3.54,4.59,5.66,8.14,4.72
											c3.54-0.94,5.66-4.59,4.72-8.14C182.77,19.92,179.11,17.8,175.57,18.74z"/>
										<path class="st25" d="M179.11,24.31c-1.63,0.13-3.24-0.76-4.22-2.08c-0.59-0.79-0.97-1.72-1.17-2.68
											c0.56-0.35,1.18-0.63,1.85-0.81c2.65-0.7,5.35,0.3,6.94,2.32c0,0.07-0.01,0.15-0.02,0.22
											C182.29,22.91,180.74,24.18,179.11,24.31z"/>
										<path class="st26" d="M178.55,29.74c-2.44,0.13-4.88-1.08-6.38-3.01c-0.65-0.83-1.12-1.79-1.42-2.8
											c0.34-1.79,1.42-3.39,2.98-4.38c0.2,0.97,0.58,1.89,1.17,2.68c0.98,1.31,2.59,2.2,4.22,2.08c1.63-0.13,3.17-1.4,3.38-3.02
											c0.01-0.07,0.02-0.15,0.02-0.22c0.54,0.69,0.96,1.5,1.2,2.39c0.31,1.16,0.29,2.33,0,3.41
											C182.55,28.53,180.58,29.63,178.55,29.74z"/>
										<path class="st27" d="M170.75,23.92c0.3,1.01,0.77,1.97,1.42,2.8c1.5,1.93,3.94,3.14,6.38,3.01
											c2.04-0.11,4.01-1.2,5.16-2.87c-0.59,2.23-2.33,4.09-4.72,4.73c-3.54,0.94-7.19-1.17-8.14-4.72
											C170.59,25.88,170.57,24.88,170.75,23.92z"/>
										<path class="st0" d="M185.53,22.97c1.21,4.55-1.51,9.24-6.06,10.45c-4.55,1.21-9.24-1.51-10.45-6.06s1.51-9.24,6.06-10.45
											C179.64,15.71,184.32,18.42,185.53,22.97z M178.99,31.6c3.54-0.94,5.66-4.59,4.72-8.14c-0.94-3.54-4.59-5.66-8.14-4.72
											c-3.54,0.94-5.66,4.59-4.72,8.14C171.8,30.42,175.45,32.54,178.99,31.6z"/>
									</g>
								</g>
							</g>
							<g>
								<g id="XMLID_00000108996321549128758810000003422459337647971980_">
									<g>
										<path class="st22" d="M142.19,11.84c-3.54,0.94-5.66,4.59-4.72,8.14c0.94,3.54,4.59,5.66,8.14,4.72
											c3.54-0.94,5.66-4.59,4.72-8.14C149.38,13.02,145.73,10.9,142.19,11.84z"/>
										<path class="st25" d="M145.73,17.41c-1.63,0.13-3.24-0.76-4.22-2.08c-0.59-0.79-0.97-1.72-1.17-2.68
											c0.56-0.35,1.18-0.63,1.85-0.81c2.65-0.7,5.35,0.3,6.94,2.32c0,0.07-0.01,0.15-0.02,0.22
											C148.9,16.01,147.36,17.28,145.73,17.41z"/>
										<path class="st26" d="M145.16,22.84c-2.44,0.13-4.88-1.08-6.38-3.01c-0.65-0.83-1.12-1.79-1.42-2.8
											c0.34-1.79,1.42-3.39,2.98-4.38c0.2,0.97,0.58,1.89,1.17,2.68c0.98,1.31,2.59,2.2,4.22,2.08c1.63-0.13,3.17-1.4,3.38-3.02
											c0.01-0.07,0.02-0.15,0.02-0.22c0.54,0.69,0.96,1.5,1.2,2.39c0.31,1.16,0.29,2.33,0,3.41
											C149.17,21.63,147.2,22.73,145.16,22.84z"/>
										<path class="st27" d="M137.36,17.03c0.3,1.01,0.77,1.97,1.42,2.8c1.5,1.93,3.94,3.14,6.38,3.01
											c2.04-0.11,4.01-1.2,5.16-2.87c-0.59,2.23-2.33,4.09-4.72,4.73c-3.54,0.94-7.19-1.17-8.14-4.72
											C137.2,18.98,137.18,17.98,137.36,17.03z"/>
										<path class="st0" d="M152.15,16.07c1.21,4.55-1.51,9.24-6.06,10.45s-9.24-1.51-10.45-6.06
											c-1.21-4.55,1.51-9.24,6.06-10.45C146.25,8.81,150.94,11.52,152.15,16.07z M145.61,24.7c3.54-0.94,5.66-4.59,4.72-8.14
											c-0.94-3.54-4.59-5.66-8.14-4.72c-3.54,0.94-5.66,4.59-4.72,8.14C138.41,23.52,142.06,25.64,145.61,24.7z"/>
									</g>
								</g>
							</g>
							<g>
								<g id="XMLID_00000085937685117802597410000014366866967484216450_">
									<g>
										<path class="st22" d="M98.77,7.47c4.05-1.08,8.22,1.34,9.3,5.39c1.08,4.05-1.34,8.23-5.39,9.3
											c-4.05,1.08-8.23-1.34-9.3-5.39C92.3,12.72,94.72,8.54,98.77,7.47z"/>
										<path class="st25" d="M98.42,15c1.69-0.8,2.78-2.6,3.01-4.46c0.13-1.12-0.02-2.25-0.36-3.33
											c-0.75-0.03-1.52,0.04-2.29,0.25c-3.02,0.8-5.14,3.33-5.57,6.25c0.05,0.07,0.09,0.14,0.15,0.21
											C94.48,15.41,96.73,15.8,98.42,15z"/>
										<path class="st26" d="M102.07,20.06c2.5-1.25,4.23-3.84,4.62-6.61c0.17-1.2,0.09-2.41-0.19-3.59
											c-1.36-1.58-3.33-2.56-5.44-2.65c0.35,1.08,0.5,2.21,0.36,3.33c-0.22,1.86-1.32,3.65-3.01,4.46
											c-1.69,0.8-3.94,0.41-5.07-1.08c-0.05-0.07-0.1-0.14-0.15-0.21c-0.15,0.99-0.1,2.03,0.17,3.05
											c0.35,1.33,1.04,2.47,1.94,3.39C97.41,21.15,99.98,21.11,102.07,20.06z"/>
										<path class="st27" d="M106.5,9.87c0.28,1.17,0.35,2.39,0.19,3.59c-0.39,2.77-2.12,5.35-4.62,6.61
											c-2.08,1.05-4.66,1.08-6.75,0.09c1.86,1.87,4.64,2.73,7.36,2.01c4.05-1.08,6.47-5.25,5.39-9.3
											C107.77,11.72,107.22,10.71,106.5,9.87z"/>
										<path class="st0" d="M98.22,5.38c5.2-1.38,10.56,1.72,11.94,6.92c1.38,5.2-1.72,10.56-6.92,11.95
											c-5.2,1.38-10.56-1.72-11.95-6.93C89.91,12.12,93.01,6.76,98.22,5.38z M108.07,12.86c-1.08-4.05-5.25-6.47-9.3-5.39
											s-6.47,5.25-5.39,9.3c1.08,4.05,5.25,6.47,9.3,5.39C106.73,21.08,109.15,16.91,108.07,12.86z"/>
									</g>
								</g>
							</g>
						</g>
						<path class="st24" d="M178.05,59.81c-0.21-0.48-0.62-0.8-1.02-1.02c-0.02,0.19-0.06,0.39-0.12,0.6
							c-0.75,2.55-4.38,5.45-10.77,8.64c-7.84,3.91-19.67,8.16-35.22,12.66c0.24,1.02,0.34,2.08,0.29,3.14
							c34.62-10.08,43.6-17.47,45.89-20.33C177.8,62.4,178.53,60.89,178.05,59.81z"/>
					</g>
				</g>
			</g>
		</g>
	</g>
</g>
</svg>
