<?xml version="1.0" encoding="utf-8"?>
<!-- Generator: Adobe Illustrator 25.0.0, SVG Export Plug-In . SVG Version: 6.00 Build 0)  -->
<svg version="1.1" xmlns="http://www.w3.org/2000/svg" xmlns:xlink="http://www.w3.org/1999/xlink" x="0px" y="0px"
	 viewBox="0 0 400 200" style="enable-background:new 0 0 400 200;" xml:space="preserve">
<style type="text/css">
	.st0{display:none;}
	.st1{display:inline;}
	.st2{fill:#0B0B5E;}
	.st3{opacity:0.1;fill:#FFFFFF;}
	.st4{opacity:0.5;fill:#FFFFFF;}
	.st5{fill:#FFFFFF;}
</style>
<g id="Layer_1" class="st0">
</g>
<g id="Layer_2" class="st0">
	<g class="st1">
		<rect class="st2" width="402" height="200"/>
	</g>
</g>
<g id="Layer_3">
	<g>
		<circle class="st3" cx="127.2" cy="123.6" r="1.1"/>
		<circle class="st4" cx="190.9" cy="52.2" r="1.1"/>
		<circle class="st4" cx="228.4" cy="81.8" r="1.1"/>
		<path class="st5" d="M234.8,70.4c-1.3-0.3-1.8-0.8-2.1-2.1c-0.1-0.2-0.4-0.2-0.5,0c-0.3,1.3-0.8,1.8-2.1,2.1
			c-0.2,0.1-0.2,0.4,0,0.5c1.3,0.3,1.8,0.8,2.1,2.1c0.1,0.2,0.4,0.2,0.5,0c0.3-1.3,0.8-1.8,2.1-2.1C235,70.8,235,70.5,234.8,70.4z"
			/>
		<path class="st5" d="M205.9,80.1c-1.3-0.3-1.8-0.8-2.1-2.1c-0.1-0.2-0.4-0.2-0.5,0c-0.3,1.3-0.8,1.8-2.1,2.1
			c-0.2,0.1-0.2,0.4,0,0.5c1.3,0.3,1.8,0.8,2.1,2.1c0.1,0.2,0.4,0.2,0.5,0c0.3-1.3,0.8-1.8,2.1-2.1
			C206.1,80.5,206.1,80.1,205.9,80.1z"/>
		<path class="st5" d="M132.2,108.4c-1.3-0.3-1.8-0.8-2.1-2.1c-0.1-0.2-0.4-0.2-0.5,0c-0.3,1.3-0.8,1.8-2.1,2.1
			c-0.2,0.1-0.2,0.4,0,0.5c1.3,0.3,1.8,0.8,2.1,2.1c0.1,0.2,0.4,0.2,0.5,0c0.3-1.3,0.8-1.8,2.1-2.1
			C132.5,108.8,132.5,108.4,132.2,108.4z"/>
		<circle class="st4" cx="132.2" cy="74.6" r="1.1"/>
		<circle class="st4" cx="208.2" cy="101.6" r="1.1"/>
		<circle class="st4" cx="216.2" cy="43.6" r="1.1"/>
		<circle class="st4" cx="246.2" cy="53.6" r="1.1"/>
		<path class="st5" d="M229.2,26.4c-1.3-0.3-1.8-0.8-2.1-2.1c-0.1-0.2-0.4-0.2-0.5,0c-0.3,1.3-0.8,1.8-2.1,2.1
			c-0.2,0.1-0.2,0.4,0,0.5c1.3,0.3,1.8,0.8,2.1,2.1c0.1,0.2,0.4,0.2,0.5,0c0.3-1.3,0.8-1.8,2.1-2.1
			C229.5,26.8,229.5,26.4,229.2,26.4z"/>
		<path class="st5" d="M177.6,40.6c-1.1-0.3-1.5-0.7-1.8-1.8c0-0.2-0.3-0.2-0.4,0c-0.3,1.1-0.7,1.5-1.8,1.8c-0.2,0-0.2,0.3,0,0.4
			c1.1,0.3,1.5,0.7,1.8,1.8c0,0.2,0.3,0.2,0.4,0c0.3-1.1,0.7-1.5,1.8-1.8C177.8,40.9,177.8,40.6,177.6,40.6z"/>
		<circle class="st4" cx="187.1" cy="87.3" r="1.1"/>
		<path class="st5" d="M76.9,58.1c-1.3-0.3-1.8-0.8-2.1-2.1c-0.1-0.2-0.4-0.2-0.5,0c-0.3,1.3-0.8,1.8-2.1,2.1
			c-0.2,0.1-0.2,0.4,0,0.5c1.3,0.3,1.8,0.8,2.1,2.1c0.1,0.2,0.4,0.2,0.5,0c0.3-1.3,0.8-1.8,2.1-2.1C77.1,58.5,77.1,58.1,76.9,58.1z"
			/>
		<circle class="st4" cx="173.1" cy="109.3" r="1.1"/>
		<circle class="st4" cx="108.9" cy="29.4" r="1.1"/>
		<circle class="st4" cx="80.1" cy="101" r="1.1"/>
		<circle class="st3" cx="156.1" cy="90.2" r="0.6"/>
		<circle class="st3" cx="185.6" cy="64.8" r="0.6"/>
		<circle class="st3" cx="255.6" cy="68.8" r="0.6"/>
		<circle class="st3" cx="148.8" cy="31.1" r="0.6"/>
		<circle class="st3" cx="123.2" cy="44.3" r="0.6"/>
		<circle class="st3" cx="84.8" cy="57.1" r="0.6"/>
		<circle class="st3" cx="59.2" cy="40.3" r="0.6"/>
	</g>
</g>
</svg>
